<svg width="72" height="64" viewBox="0 0 72 64" fill="none" xmlns="http://www.w3.org/2000/svg">
<g clip-path="url(#clip0_1_155)">
<path d="M70.853 31.1069C70.2117 31.0437 69.5699 31.222 69.053 31.6069C68.811 31.7429 68.565 31.874 68.305 32.007L66.785 32.8249L66.704 31.559C66.6066 30.8865 66.6843 30.2001 66.9295 29.5664C67.1747 28.9326 67.5793 28.3727 68.104 27.9409C68.8785 27.2849 69.6153 26.5858 70.311 25.8469C70.594 25.5599 70.876 25.2729 71.161 24.9899C71.3556 24.8199 71.5146 24.6132 71.6291 24.3815C71.7435 24.1499 71.8111 23.8977 71.828 23.6398C71.8235 23.4538 71.7804 23.2708 71.7014 23.1022C71.6224 22.9337 71.5092 22.7833 71.369 22.6608C71.2048 22.5126 71.0117 22.4 70.8019 22.3298C70.5921 22.2596 70.37 22.2334 70.1497 22.2529C69.9293 22.2724 69.7153 22.3371 69.5211 22.4431C69.3269 22.5491 69.1566 22.694 69.021 22.8688C68.774 23.1078 68.547 23.3689 68.296 23.6469L66.926 25.153L66.483 23.823C66.059 22.548 65.783 21.3879 66.683 20.1069C67.415 19.0619 68.063 17.9069 68.69 16.7949L69.102 16.062C69.2198 15.8917 69.3003 15.6984 69.3382 15.4948C69.3761 15.2912 69.3705 15.0819 69.3219 14.8806C69.2733 14.6793 69.1827 14.4907 69.056 14.3269C68.9294 14.163 68.7696 14.0277 68.587 13.9299C68.4064 13.8307 68.2078 13.7686 68.0029 13.7468C67.798 13.725 67.5908 13.7439 67.3934 13.8029C67.1959 13.8619 67.0122 13.9597 66.8528 14.0903C66.6935 14.2209 66.5616 14.3819 66.465 14.5639C66.255 14.8879 66.058 15.222 65.851 15.573L64.799 17.333C64.799 17.333 62.84 14.1719 63.356 12.7429C63.756 11.6369 64.056 10.455 64.346 9.31196L64.628 8.22285C64.7028 8.02227 64.7347 7.80835 64.7216 7.59468C64.7086 7.38101 64.6508 7.17235 64.5522 6.98238C64.4535 6.7924 64.3161 6.62523 64.1488 6.49165C63.9815 6.35807 63.7881 6.26117 63.581 6.20698C63.3731 6.15542 63.157 6.14688 62.9457 6.18208C62.7345 6.21729 62.5327 6.29539 62.3528 6.41157C62.1729 6.52776 62.0187 6.67956 61.8997 6.85762C61.7807 7.03568 61.6995 7.23631 61.661 7.44697C61.561 7.80497 61.461 8.16298 61.354 8.52998L60.854 10.323L59.872 9.53389C59.3098 9.1553 58.8585 8.63386 58.5645 8.02315C58.2705 7.41244 58.1443 6.73463 58.199 6.05904C58.2706 5.02895 58.2846 3.99571 58.241 2.96406L58.221 1.86397C58.2279 1.5691 58.1943 1.27467 58.121 0.988967C58.0098 0.671865 57.7939 0.402184 57.5089 0.224074C57.2239 0.045964 56.8868 -0.0299509 56.553 0.00898636C56.205 0.0344869 55.8776 0.18391 55.6302 0.430129C55.3829 0.676348 55.2321 1.00309 55.205 1.35103C55.174 1.79503 55.183 2.2419 55.19 2.7209L55.197 4.91499L53.097 3.63301C52.539 3.28901 52.029 2.97196 51.505 2.67696C51.2256 2.51343 50.9087 2.42482 50.585 2.41988C50.328 2.41775 50.075 2.48361 49.8514 2.61055C49.6279 2.73749 49.4418 2.92118 49.312 3.14302C49.2083 3.31872 49.1418 3.51381 49.1166 3.71626C49.0915 3.91872 49.1081 4.12427 49.1656 4.32002C49.2231 4.51578 49.3201 4.69749 49.4507 4.8542C49.5814 5.01091 49.7428 5.13914 49.925 5.23091C50.143 5.37091 50.368 5.50406 50.593 5.63106C50.954 5.84406 51.314 6.05605 51.653 6.29805C60.453 12.582 64.453 21.0289 63.553 31.3979C63.0233 37.087 60.6139 42.4376 56.705 46.6049C54.2588 49.2836 51.3187 51.4652 48.046 53.03C47.6163 53.2335 47.2398 53.534 46.946 53.9079C46.7899 54.1672 46.727 54.472 46.7677 54.7719C46.8084 55.0718 46.9504 55.3489 47.17 55.5571C47.4171 55.8093 47.7406 55.9727 48.0902 56.0219C48.4398 56.0711 48.796 56.0034 49.103 55.8291C51.7979 54.5905 54.297 52.9641 56.521 51.0019C56.7772 50.7629 57.0789 50.5777 57.408 50.4575C57.7371 50.3372 58.087 50.2844 58.437 50.302C60.178 50.327 61.915 50.328 63.661 50.302C64.1441 50.3146 64.6132 50.1389 64.969 49.812C65.1004 49.6791 65.2031 49.5207 65.2706 49.3464C65.338 49.1721 65.3688 48.9857 65.361 48.799C65.3522 48.5891 65.3002 48.3833 65.2085 48.1943C65.1168 48.0053 64.9872 47.8372 64.8278 47.7004C64.6684 47.5636 64.4826 47.4609 64.2819 47.3989C64.0812 47.3369 63.8698 47.317 63.661 47.34C63.269 47.331 62.88 47.333 62.461 47.34H60.454L61.094 46.1621C61.321 45.5706 61.6904 45.0442 62.1694 44.6296C62.6483 44.215 63.2222 43.9248 63.84 43.7849C65.04 43.5639 66.263 43.217 67.44 42.885L68.483 42.5939C68.6949 42.5643 68.8979 42.4896 69.0783 42.3747C69.2588 42.2599 69.4124 42.1076 69.5289 41.9282C69.6454 41.7488 69.7221 41.5465 69.7537 41.3349C69.7852 41.1234 69.7711 40.9074 69.712 40.7019C69.6454 40.5026 69.5396 40.3189 69.401 40.1611C69.2624 40.0033 69.0936 39.8747 68.9046 39.7829C68.7156 39.6912 68.5102 39.638 68.3005 39.6267C68.0907 39.6153 67.8808 39.6461 67.683 39.717C67.283 39.817 66.893 39.917 66.477 40.017L64.622 40.486L64.905 39.2119C64.9609 38.5757 65.1808 37.965 65.5433 37.4392C65.9057 36.9134 66.3983 36.4904 66.973 36.2119C67.6955 35.87 68.3991 35.4899 69.081 35.073C69.566 34.786 70.055 34.502 70.554 34.239C71.1623 33.9766 71.6678 33.5221 71.993 32.945C72.0189 32.6994 72.0189 32.4517 71.993 32.206C71.9187 31.9376 71.7737 31.694 71.5732 31.5007C71.3727 31.3074 71.124 31.1714 70.853 31.1069Z" fill="#041E42"/>
<path d="M43.263 57.0001C40.6267 56.062 37.8428 55.607 35.045 55.6571C28.4315 55.5392 22.0911 52.9995 17.225 48.5191C10.517 42.3821 7.55499 34.775 8.41699 25.909C9.00661 19.4669 12.0019 13.4834 16.806 9.15098C18.0622 8.04184 19.3963 7.0243 20.798 6.10605C21.186 5.83939 21.5717 5.57267 21.955 5.30601C22.639 4.822 22.903 4.38617 22.863 3.79917C22.8512 3.55044 22.7749 3.3091 22.6417 3.09873C22.5084 2.88836 22.3228 2.716 22.103 2.59897C21.8586 2.4753 21.587 2.41491 21.3132 2.42295C21.0393 2.43098 20.7718 2.50732 20.535 2.64512C19.989 2.94512 19.464 3.26906 18.908 3.61606L16.8 4.90317V3.06211C16.8 2.83711 16.8 2.65001 16.8 2.46201V2.02598C16.8118 1.72175 16.795 1.41717 16.75 1.11606C16.6633 0.795636 16.4727 0.513102 16.2081 0.312597C15.9436 0.112091 15.62 0.00503113 15.288 0.00815357H15.23C14.871 0.00469967 14.5239 0.137356 14.2588 0.379491C13.9936 0.621627 13.8301 0.955194 13.801 1.31309C13.7097 2.98876 13.7066 4.6681 13.792 6.34409C13.8041 6.95474 13.6661 7.55911 13.3899 8.10386C13.1137 8.6486 12.7078 9.11705 12.208 9.46811L11.202 10.412L10.312 7.39414C10.2671 7.17002 10.1717 6.95895 10.0331 6.7772C9.89446 6.59544 9.71627 6.44769 9.51202 6.34507C9.23981 6.20072 8.93031 6.14205 8.62414 6.17661C8.31797 6.21117 8.02944 6.33728 7.79626 6.53867C7.56308 6.74007 7.39617 7.00739 7.31744 7.30527C7.2387 7.60315 7.25183 7.9178 7.35504 8.20811L7.65502 9.33896C7.97402 10.558 8.30302 11.818 8.71002 13.016C8.83823 13.4362 8.86784 13.8805 8.79657 14.3141C8.72529 14.7476 8.55502 15.1589 8.29901 15.516C8.18634 15.7094 8.08615 15.9099 7.99902 16.1161L7.37902 17.64L5.72198 14.9042C5.62898 14.7492 5.54003 14.5941 5.43603 14.4481C5.22298 14.1154 4.88979 13.8777 4.50585 13.7845C4.12192 13.6914 3.71681 13.75 3.375 13.9481C3.20679 14.0388 3.05843 14.1622 2.93866 14.3111C2.81888 14.4601 2.7301 14.6315 2.67755 14.8153C2.62499 14.999 2.60971 15.1915 2.63262 15.3812C2.65554 15.5709 2.71623 15.7541 2.81103 15.92C3.64603 17.432 4.46802 18.92 5.40002 20.273C5.67321 20.6969 5.84271 21.1792 5.89483 21.6808C5.94695 22.1823 5.88021 22.689 5.70001 23.16C5.66201 23.316 5.62198 23.4762 5.58898 23.6422L5.29803 25.0831L3.427 23.3192C3.236 23.1322 3.043 22.9431 2.846 22.7601C2.70369 22.6057 2.53209 22.4811 2.34118 22.3937C2.15027 22.3062 1.94387 22.2577 1.734 22.2508C1.52414 22.2439 1.315 22.2789 1.11877 22.3536C0.922539 22.4283 0.743131 22.5414 0.590999 22.6861C0.44368 22.8254 0.327457 22.9941 0.249995 23.1815C0.172534 23.3688 0.135587 23.5706 0.141536 23.7733C0.147485 23.9759 0.196223 24.175 0.284541 24.3575C0.37286 24.54 0.498751 24.7017 0.653987 24.8321L1.208 25.3951C2.089 26.2951 3.00098 27.228 3.96398 28.035C4.47025 28.4614 4.85698 29.0122 5.08612 29.6332C5.31526 30.2541 5.37894 30.924 5.27099 31.577L5.17102 32.8292L3.43402 31.88C3.03402 31.655 2.64898 31.4372 2.24798 31.2472C2.03661 31.1395 1.80378 31.0806 1.56665 31.075C1.32951 31.0695 1.09415 31.1175 0.877986 31.2152C0.666984 31.3141 0.481786 31.4604 0.33691 31.6429C0.192033 31.8254 0.091459 32.0392 0.0430252 32.2672C-0.0233987 32.6 0.0258475 32.9454 0.182613 33.2464C0.339378 33.5474 0.594255 33.7856 0.905025 33.922L1.90502 34.5082C2.93402 35.1162 4.00004 35.746 5.07904 36.252C5.63164 36.5368 6.10414 36.9553 6.45349 37.4696C6.80283 37.9838 7.01789 38.5775 7.07904 39.1961L7.40502 40.4962L4.35101 39.735C4.15155 39.6551 3.93772 39.6173 3.72296 39.6239C3.50819 39.6304 3.29712 39.6811 3.1029 39.773C2.90868 39.8649 2.73555 39.9961 2.59429 40.1581C2.45304 40.32 2.34668 40.5091 2.28198 40.714C2.22446 40.9211 2.21215 41.1384 2.24585 41.3507C2.27954 41.563 2.35847 41.7655 2.47729 41.9447C2.59611 42.1238 2.75208 42.2752 2.93457 42.3888C3.11705 42.5024 3.32184 42.5756 3.53503 42.6031L4.50799 42.8722C5.73699 43.2162 7.00798 43.572 8.26098 43.817C8.83664 43.954 9.3704 44.229 9.81634 44.618C10.2623 45.007 10.607 45.4984 10.821 46.0501L11.488 47.2381L10.166 47.359L9.41601 47.3531C8.93101 47.3471 8.48403 47.3401 8.03503 47.3661C7.73902 47.3649 7.45071 47.4605 7.21405 47.6383C6.97738 47.8161 6.8053 48.0665 6.72399 48.3512C6.64001 48.5633 6.60949 48.7927 6.63513 49.0194C6.66076 49.2461 6.74179 49.463 6.87103 49.651C7.02042 49.8531 7.21529 50.0172 7.43994 50.13C7.66458 50.2427 7.91265 50.3011 8.164 50.3001C9.164 50.3291 10.17 50.326 11.175 50.325C12.037 50.325 12.901 50.32 13.763 50.338C14.3268 50.3505 14.8703 50.5504 15.308 50.9061C17.4296 52.7753 19.8002 54.3413 22.352 55.5592C23.116 55.9192 23.893 56.25 24.689 56.589L27.012 57.5941L25.831 58.588C25.7347 58.6599 25.6438 58.7389 25.559 58.8241C25.296 59.1051 25.025 59.383 24.759 59.659C24.1142 60.289 23.5128 60.962 22.959 61.6732C22.8037 61.8677 22.7047 62.101 22.6726 62.3478C22.6405 62.5945 22.6767 62.8454 22.777 63.0731C22.8961 63.3237 23.0788 63.5387 23.3069 63.6966C23.535 63.8546 23.8005 63.9498 24.077 63.973C24.3599 64.0002 24.6449 63.9494 24.9009 63.826C25.1569 63.7026 25.3741 63.5113 25.529 63.273L25.755 63.0121C26.3252 62.3204 26.9539 61.679 27.634 61.0951C29.5357 59.6599 31.8375 58.8536 34.219 58.7882C34.905 58.7328 35.5647 58.7049 36.198 58.7042C38.5995 58.6389 40.9793 59.1747 43.121 60.263C44.5044 61.0753 45.7073 62.1616 46.656 63.4552C46.7771 63.6071 46.9271 63.7335 47.0974 63.827C47.2677 63.9205 47.4549 63.9794 47.6481 64.0001C47.8413 64.0207 48.0367 64.0028 48.223 63.9474C48.4092 63.8919 48.5826 63.8 48.733 63.6771C49.0345 63.4533 49.2376 63.1215 49.2999 62.7513C49.3621 62.3811 49.2787 62.0011 49.067 61.691C47.6328 59.5933 45.6148 57.9624 43.263 57.0001Z" fill="#041E42"/>
<path d="M12 29.1881C12 42.1161 22.787 52.6339 36.044 52.6339C49.301 52.6339 60.09 42.1171 60.09 29.1881C60.09 16.2591 49.303 5.74304 36.044 5.74304C22.785 5.74304 12 16.2591 12 29.1881ZM36.044 8.81604C47.565 8.81604 56.936 17.9551 56.936 29.1881C56.936 40.4211 47.565 49.5599 36.044 49.5599C24.523 49.5599 15.152 40.4211 15.152 29.1881C15.152 17.9551 24.525 8.81604 36.044 8.81604Z" fill="#041E42"/>
<path d="M24.642 41.2041H28.287C28.8413 41.2063 29.3861 41.0601 29.865 40.781L31.041 40.9189C33.6982 41.2279 36.372 41.3717 39.047 41.3491C39.774 41.4031 40.459 41.4321 41.095 41.4321C42.068 41.4451 43.0396 41.3586 43.995 41.174C44.8229 41.0736 45.6192 40.7947 46.329 40.3567C47.0387 39.9187 47.645 39.332 48.106 38.6369C48.5003 37.9407 48.6775 37.1426 48.615 36.3449C49.0617 35.9287 49.4121 35.4199 49.6415 34.854C49.8709 34.2881 49.9738 33.6789 49.943 33.0691C49.9244 32.717 49.8647 32.3682 49.765 32.03C50.2893 31.3274 50.5588 30.4672 50.529 29.591C50.4915 28.8473 50.2466 28.1289 49.822 27.5171C50.0663 26.8359 50.0993 26.0968 49.9166 25.3967C49.7339 24.6965 49.344 24.0679 48.798 23.593C47.723 22.637 45.961 22.204 43.568 22.322C42.551 22.3706 41.5391 22.496 40.541 22.697C40.482 22.706 40.422 22.7179 40.362 22.7299C40.516 21.8886 40.7383 21.0613 41.027 20.2561C41.927 17.5831 41.847 15.5029 40.786 14.0749C40.3642 13.5457 39.8273 13.1196 39.2162 12.8288C38.6051 12.5381 37.9358 12.3904 37.259 12.3969C36.9553 12.393 36.6543 12.455 36.3769 12.5786C36.0995 12.7022 35.8521 12.8845 35.652 13.113C35.033 14.0145 34.7958 15.1241 34.992 16.1999C33.949 18.8929 31.902 23.1859 30.392 24.3169C30.3234 24.3647 30.2598 24.4194 30.202 24.4799C29.8043 24.8898 29.4611 25.3492 29.181 25.8469C28.8887 25.7615 28.5856 25.7184 28.281 25.719H24.636C23.828 25.7093 23.0492 26.0208 22.4705 26.5847C21.8917 27.1486 21.5603 27.919 21.549 28.727V38.197C21.5609 39.0058 21.8933 39.7767 22.4732 40.3405C23.0532 40.9044 23.8333 41.215 24.642 41.2041ZM32.142 26.456C34.876 24.344 37.467 17.5879 37.753 16.8269C37.8369 16.6091 37.8597 16.3728 37.819 16.143C37.7733 15.8299 37.7586 15.513 37.775 15.197C38.0644 15.2692 38.3213 15.4359 38.505 15.6709C38.991 16.3269 38.936 17.644 38.349 19.382C37.249 22.645 37.209 24.336 38.226 25.216C38.4746 25.43 38.7745 25.5758 39.0963 25.6391C39.4182 25.7024 39.7509 25.6808 40.062 25.5769C40.414 25.4999 40.748 25.4309 41.173 25.3559C43.291 24.9069 46.083 24.871 46.904 25.602C47.0823 25.7809 47.1911 26.0172 47.2109 26.269C47.2307 26.5208 47.1602 26.7715 47.012 26.976C46.8277 27.2457 46.7492 27.5738 46.7914 27.8977C46.8337 28.2216 46.9937 28.5185 47.241 28.7319C47.5047 28.9896 47.6732 29.3292 47.719 29.695C47.7064 29.9149 47.6487 30.1299 47.5492 30.3264C47.4497 30.5229 47.3107 30.6966 47.141 30.8369C46.9479 31.0316 46.8188 31.2807 46.7711 31.5507C46.7234 31.8208 46.7593 32.0988 46.874 32.3479C46.8936 32.3908 46.9156 32.4325 46.94 32.4729C47.0572 32.6973 47.1254 32.9442 47.14 33.197C47.1384 33.506 47.0554 33.8091 46.8995 34.0759C46.7437 34.3427 46.5204 34.5638 46.252 34.717C46.0173 34.8875 45.8436 35.129 45.7565 35.4057C45.6693 35.6824 45.6734 35.9796 45.768 36.2539C45.8647 36.6036 45.8243 36.9772 45.655 37.2981C45.3795 37.6365 45.0389 37.9164 44.6536 38.1213C44.2682 38.3262 43.8457 38.4518 43.411 38.4909C42.0284 38.7186 40.6213 38.7584 39.228 38.6091H39.115H39.085C36.5149 38.6345 33.9458 38.4974 31.393 38.1989L31.371 28.7209C31.3706 28.4782 31.3407 28.2365 31.282 28.0009C31.4554 27.4304 31.749 26.9036 32.143 26.456H32.142ZM24.367 28.719C24.3681 28.6473 24.3975 28.5788 24.4489 28.5288C24.5002 28.4787 24.5693 28.4511 24.641 28.4519H28.286C28.3574 28.4513 28.4262 28.4792 28.4772 28.5293C28.5282 28.5793 28.5572 28.6475 28.558 28.719V38.1889C28.5572 38.2604 28.5282 38.3286 28.4772 38.3786C28.4262 38.4287 28.3574 38.4566 28.286 38.456H24.586C24.5253 38.4441 24.4707 38.4115 24.4312 38.364C24.3916 38.3164 24.3697 38.2568 24.369 38.195L24.367 28.719Z" fill="url(#paint0_linear_1_155)"/>
</g>
<defs>
<linearGradient id="paint0_linear_1_155" x1="21.549" y1="26.915" x2="50.5312" y2="26.915" gradientUnits="userSpaceOnUse">
<stop stop-color="#664BCD"/>
<stop offset="1" stop-color="#00A9E1"/>
</linearGradient>
<clipPath id="clip0_1_155">
<rect width="72" height="64" fill="white"/>
</clipPath>
</defs>
</svg>
