<svg width="30" height="30" viewBox="0 0 30 30" fill="none" xmlns="http://www.w3.org/2000/svg">
<g clip-path="url(#clip0_2_445)">
<path d="M15 0C12.0333 0 9.13316 0.879735 6.66642 2.52796C4.19969 4.17618 2.2771 6.51886 1.14178 9.25975C0.00646877 12.0006 -0.290581 15.0166 0.288197 17.9264C0.866975 20.8361 2.29559 23.5088 4.39337 25.6066C6.49116 27.7044 9.16391 29.133 12.0736 29.7118C14.9833 30.2906 17.9993 29.9935 20.7402 28.8582C23.4811 27.7229 25.8238 25.8003 27.472 23.3336C29.1202 20.8668 30 17.9667 30 15C30 11.0218 28.4196 7.20644 25.6066 4.3934C22.7935 1.58035 18.9782 0 15 0ZM19.2671 9.76184C19.2671 10.0441 19.1487 10.1566 18.8723 10.1566C18.3414 10.1566 17.8105 10.1566 17.2816 10.1783C16.7526 10.2 16.4644 10.4408 16.4644 10.9934C16.4526 11.5855 16.4644 12.1658 16.4644 12.7697H18.7362C19.0598 12.7697 19.1704 12.8803 19.1704 13.2059C19.1704 13.9954 19.1704 14.7888 19.1704 15.5862C19.1704 15.9079 19.0677 16.0086 18.7421 16.0105H16.4447V22.4329C16.4447 22.7763 16.3381 22.8849 15.9987 22.8849H13.5276C13.2296 22.8849 13.1131 22.7684 13.1131 22.4704V16.0204H11.1513C10.8434 16.0204 10.7329 15.9079 10.7329 15.598C10.7329 14.7993 10.7329 14.0013 10.7329 13.2039C10.7329 12.8961 10.8493 12.7796 11.1533 12.7796H13.1131V11.0526C13.0899 10.2769 13.276 9.50921 13.6519 8.83026C14.0428 8.14482 14.669 7.62446 15.4144 7.36579C15.8982 7.18977 16.4095 7.10154 16.9243 7.10526H18.8644C19.1427 7.10526 19.2592 7.22763 19.2592 7.5C19.2691 8.25987 19.2691 9.01184 19.2671 9.76184Z" fill="white"/>
</g>
<defs>
<clipPath id="clip0_2_445">
<rect width="30" height="30" rx="15" fill="white"/>
</clipPath>
</defs>
</svg>
