<svg width="38" height="38" viewBox="0 0 38 38" fill="none" xmlns="http://www.w3.org/2000/svg">
<g clip-path="url(#clip0_2_445)" filter="url(#filter0_d_2_445)">
<path d="M18.9999 0C16.0332 0 13.1331 0.879735 10.6664 2.52796C8.19965 4.17618 6.27707 6.51886 5.14175 9.25975C4.00644 12.0006 3.70939 15.0166 4.28817 17.9264C4.86694 20.8361 6.29556 23.5088 8.39334 25.6066C10.4911 27.7044 13.1639 29.133 16.0736 29.7118C18.9833 30.2906 21.9993 29.9935 24.7402 28.8582C27.4811 27.7229 29.8238 25.8003 31.472 23.3336C33.1202 20.8668 33.9999 17.9667 33.9999 15C33.9999 11.0218 32.4196 7.20644 29.6065 4.3934C26.7935 1.58035 22.9782 0 18.9999 0V0ZM23.267 9.76184C23.267 10.0441 23.1486 10.1566 22.8723 10.1566C22.3414 10.1566 21.8105 10.1566 21.2815 10.1783C20.7526 10.2 20.4644 10.4408 20.4644 10.9934C20.4526 11.5855 20.4644 12.1658 20.4644 12.7697H22.7361C23.0598 12.7697 23.1703 12.8803 23.1703 13.2059C23.1703 13.9954 23.1703 14.7888 23.1703 15.5862C23.1703 15.9079 23.0677 16.0086 22.7421 16.0105H20.4447V22.4329C20.4447 22.7763 20.3381 22.8849 19.9986 22.8849H17.5276C17.2296 22.8849 17.1131 22.7684 17.1131 22.4704V16.0204H15.1513C14.8434 16.0204 14.7328 15.9079 14.7328 15.598C14.7328 14.7993 14.7328 14.0013 14.7328 13.2039C14.7328 12.8961 14.8493 12.7796 15.1532 12.7796H17.1131V11.0526C17.0898 10.2769 17.276 9.50921 17.6519 8.83026C18.0427 8.14482 18.669 7.62446 19.4144 7.36579C19.8982 7.18977 20.4095 7.10154 20.9243 7.10526H22.8644C23.1427 7.10526 23.2592 7.22763 23.2592 7.5C23.269 8.25987 23.269 9.01184 23.267 9.76184Z" fill="white"/>
</g>
<defs>
<filter id="filter0_d_2_445" x="0" y="0" width="38" height="38" filterUnits="userSpaceOnUse" color-interpolation-filters="sRGB">
<feFlood flood-opacity="0" result="BackgroundImageFix"/>
<feColorMatrix in="SourceAlpha" type="matrix" values="0 0 0 0 0 0 0 0 0 0 0 0 0 0 0 0 0 0 127 0" result="hardAlpha"/>
<feOffset dy="4"/>
<feGaussianBlur stdDeviation="2"/>
<feComposite in2="hardAlpha" operator="out"/>
<feColorMatrix type="matrix" values="0 0 0 0 0 0 0 0 0 0 0 0 0 0 0 0 0 0 0.25 0"/>
<feBlend mode="normal" in2="BackgroundImageFix" result="effect1_dropShadow_2_445"/>
<feBlend mode="normal" in="SourceGraphic" in2="effect1_dropShadow_2_445" result="shape"/>
</filter>
<clipPath id="clip0_2_445">
<rect width="30" height="30" fill="white" transform="translate(4)"/>
</clipPath>
</defs>
</svg>
