<svg width="25" height="24" viewBox="0 0 25 24" fill="none" xmlns="http://www.w3.org/2000/svg">
<path d="M22.7128 11.9327C22.7127 11.9327 22.7127 11.9326 22.7127 11.9326V10.2147C22.7127 4.82815 18.3311 0.446167 12.9446 0.446167C7.55809 0.446167 3.17569 4.82815 3.17569 10.2147V11.4444C1.60954 12.0591 0.498047 13.5833 0.498047 15.3684V15.7727C0.498047 18.0969 2.38436 19.9832 4.70857 19.9832H5.82015C6.76331 19.9832 7.53805 19.2084 7.53805 18.2653V12.8758C7.53805 11.9327 6.76331 11.1579 5.82015 11.1579H4.8599V10.2147C4.8599 5.75699 8.48651 2.13038 12.9446 2.13038C17.4019 2.13038 21.0285 5.75699 21.0285 10.2147V11.2253C20.7844 11.1832 20.5401 11.1579 20.2875 11.1579H19.1759C18.2328 11.1579 17.458 11.9327 17.458 12.8758V18.2653C17.458 19.1792 18.193 19.9417 19.097 19.9816C18.7402 21.0734 17.7242 21.8697 16.5145 21.8697H14.6789V21.8191C14.6789 21.354 14.3023 20.9769 13.8368 20.9769C13.3714 20.9769 12.9947 21.354 12.9947 21.8191V22.7118C12.9947 23.1768 13.3714 23.5539 13.8368 23.5539H16.5145C18.6737 23.5539 20.4679 21.9928 20.8464 19.9415C20.8482 19.9412 20.85 19.9413 20.8517 19.9411C22.9065 19.6716 24.498 17.9032 24.498 15.7727V15.3684C24.498 13.9453 23.7907 12.6905 22.7128 11.9327ZM5.85384 12.8758V18.2653C5.85384 18.2821 5.83699 18.299 5.82015 18.299H4.70857C3.3191 18.299 2.18226 17.1621 2.18226 15.7727V15.3684C2.18226 13.979 3.3191 12.8421 4.70857 12.8421L5.85384 12.8758ZM22.8138 15.7727C22.8138 17.1621 21.677 18.299 20.2875 18.299H19.1759L19.1423 18.2653L19.1759 12.8421H20.2875C21.677 12.8421 22.8138 13.979 22.8138 15.3684V15.7727Z" fill="#0A1E47"/>
</svg>
