<svg width="30" height="30" viewBox="0 0 30 30" fill="none" xmlns="http://www.w3.org/2000/svg">
<g clip-path="url(#clip0_2_463)">
<path d="M14.9999 0C12.0332 0 9.13313 0.879735 6.66639 2.52796C4.19965 4.17618 2.27707 6.51886 1.14175 9.25975C0.00643819 12.0006 -0.290612 15.0166 0.288166 17.9264C0.866945 20.8361 2.29556 23.5088 4.39334 25.6066C6.49113 27.7044 9.16387 29.133 12.0736 29.7118C14.9833 30.2906 17.9993 29.9935 20.7402 28.8582C23.4811 27.7229 25.8238 25.8003 27.472 23.3336C29.1202 20.8668 29.9999 17.9667 29.9999 15C29.9999 11.0218 28.4196 7.20644 25.6065 4.3934C22.7935 1.58035 18.9782 0 14.9999 0V0ZM10.6381 22.8947H7.36574V12.3533H10.6381V22.8947ZM8.99994 10.9145C8.62334 10.916 8.25473 10.8059 7.9407 10.598C7.62667 10.3901 7.38132 10.0938 7.23567 9.74648C7.09002 9.39917 7.0506 9.01648 7.1224 8.64678C7.1942 8.27708 7.374 7.93696 7.63906 7.66942C7.90411 7.40188 8.24254 7.21892 8.61156 7.14368C8.98057 7.06844 9.36361 7.10428 9.71226 7.24669C10.0609 7.3891 10.3595 7.63167 10.5703 7.94375C10.7811 8.25583 10.8947 8.6234 10.8967 9C10.8977 9.505 10.6988 9.98988 10.3434 10.3486C9.98794 10.7074 9.50493 10.9108 8.99994 10.9145ZM22.8947 22.8947H19.6243V17.7632C19.6243 16.5395 19.6006 14.9704 17.923 14.9704C16.2453 14.9704 15.9493 16.3007 15.9493 17.6743V22.8947H12.6907V12.3533H15.8309V13.7901H15.8763C16.3124 12.9612 17.3802 12.0868 18.973 12.0868C22.2848 12.0868 22.8947 14.2697 22.8947 17.104V22.8947Z" fill="white"/>
</g>
<defs>
<clipPath id="clip0_2_463">
<rect width="30" height="30" fill="white"/>
</clipPath>
</defs>
</svg>
