<svg width="88" height="80" viewBox="0 0 88 80" fill="none" xmlns="http://www.w3.org/2000/svg">
<path d="M70.4611 32.612C70.8191 32.628 71.172 32.6271 71.57 32.6201H72.1881H72.9281L72.9231 33.9951C72.9161 34.3951 72.9111 34.7722 72.9311 35.1472C72.9183 35.3542 72.949 35.5617 73.021 35.7563C73.093 35.9509 73.2048 36.1283 73.3492 36.2773C73.4936 36.4262 73.6675 36.5433 73.8598 36.6213C74.0521 36.6992 74.2586 36.7363 74.466 36.7299C74.6734 36.7236 74.8771 36.674 75.0643 36.5844C75.2515 36.4949 75.4178 36.3672 75.5529 36.2097C75.6879 36.0521 75.7886 35.8682 75.8486 35.6696C75.9085 35.471 75.9264 35.262 75.901 35.0561C75.901 34.6961 75.901 34.336 75.901 33.956V32.6L77.3191 32.6061C77.7511 32.6131 78.144 32.6212 78.531 32.5932C78.7284 32.5935 78.9238 32.554 79.1056 32.4772C79.2874 32.4005 79.4519 32.2878 79.5893 32.1462C79.7268 32.0046 79.8343 31.8368 79.9056 31.6528C79.9769 31.4688 80.0104 31.2724 80.0042 31.0751C79.9981 30.8779 79.9523 30.6838 79.8697 30.5046C79.787 30.3254 79.6692 30.1647 79.5232 30.0319C79.3771 29.8992 79.2059 29.7971 79.0197 29.7319C78.8334 29.6666 78.636 29.6394 78.4391 29.652C78.0461 29.641 77.658 29.6432 77.249 29.6462H75.906V28.3862C75.906 28.0072 75.911 27.6561 75.898 27.3061C75.9009 27.0542 75.8727 26.803 75.8141 26.558C75.7147 26.2413 75.5098 25.9682 75.2337 25.7841C74.9575 25.6 74.6266 25.516 74.296 25.5461C73.9729 25.5564 73.6639 25.6813 73.4243 25.8984C73.1847 26.1154 73.0301 26.4106 72.9881 26.7311C72.9324 27.2156 72.9017 27.7025 72.8961 28.1901C72.8891 28.4361 72.883 28.6901 72.869 28.9401L72.8371 29.6401H71.5791C71.2001 29.6401 70.838 29.6401 70.479 29.6401C70.2713 29.6166 70.0609 29.6372 69.8617 29.7004C69.6624 29.7635 69.4786 29.8679 69.3224 30.0068C69.1661 30.1456 69.0407 30.3158 68.9545 30.5063C68.8683 30.6967 68.8231 30.9032 68.8219 31.1122C68.8207 31.3213 68.8635 31.5282 68.9475 31.7197C69.0316 31.9111 69.1549 32.0827 69.3096 32.2233C69.4643 32.3639 69.6469 32.4704 69.8454 32.5358C70.044 32.6013 70.2541 32.6243 70.4621 32.6032L70.4611 32.612Z" fill="url(#paint0_linear_1_142)"/>
<path d="M17.488 27.3571C17.8361 27.355 18.1812 27.4216 18.5036 27.5529C18.826 27.6843 19.1194 27.8779 19.3669 28.1228C19.6144 28.3676 19.8113 28.6588 19.9461 28.9797C20.081 29.3006 20.1513 29.645 20.153 29.9931C20.1577 30.3483 20.0915 30.7007 19.9584 31.03C19.8253 31.3593 19.6278 31.659 19.3776 31.9111C19.1274 32.1632 18.8295 32.3628 18.5012 32.4985C18.1729 32.6342 17.8209 32.7031 17.4657 32.7011C17.1105 32.6992 16.7593 32.6265 16.4325 32.4873C16.1058 32.348 15.81 32.1452 15.5625 31.8903C15.3151 31.6355 15.1209 31.3339 14.9914 31.0031C14.8618 30.6724 14.7995 30.3192 14.808 29.9641C14.809 29.6158 14.8795 29.2713 15.0154 28.9506C15.1514 28.63 15.35 28.3397 15.5996 28.0969C15.8493 27.854 16.1449 27.6634 16.4692 27.5363C16.7935 27.4093 17.1398 27.3485 17.488 27.3571Z" fill="url(#paint1_linear_1_142)"/>
<path d="M13.293 40.03L8.35103 45.33C8.1875 45.5054 8.07568 45.7223 8.02785 45.9572C7.98002 46.1922 7.99807 46.4358 8.08003 46.6611C8.162 46.8864 8.30466 47.0846 8.49226 47.2338C8.67987 47.3831 8.90513 47.4778 9.14308 47.507L11.6001 47.8071C11.7894 47.8304 11.9712 47.8951 12.1327 47.9965C12.2942 48.098 12.4315 48.2336 12.5346 48.394C12.6378 48.5544 12.7044 48.7357 12.7297 48.9248C12.755 49.1138 12.7384 49.3061 12.681 49.488L11.7811 52.3479C11.6937 52.6253 11.7019 52.924 11.8043 53.1962C11.9067 53.4685 12.0974 53.6985 12.346 53.8496C12.5946 54.0006 12.8866 54.0638 13.1754 54.0293C13.4642 53.9947 13.7331 53.8643 13.939 53.6589L20.3551 47.2648C20.528 47.0929 20.649 46.8759 20.7044 46.6384C20.7597 46.4009 20.7472 46.1525 20.6681 45.9218C20.589 45.6911 20.4467 45.4873 20.2573 45.3337C20.0679 45.1801 19.8391 45.0827 19.5971 45.0529L15.9741 44.6079C15.7794 44.5841 15.5927 44.5165 15.4279 44.4104C15.263 44.3042 15.1243 44.1622 15.0222 43.9948C14.92 43.8275 14.857 43.6392 14.838 43.444C14.8189 43.2489 14.8442 43.0519 14.9121 42.8679L15.4671 41.3679C15.5736 41.0853 15.5786 40.7747 15.481 40.489C15.3834 40.2032 15.1893 39.9602 14.9321 39.802C14.675 39.6437 14.3707 39.5799 14.0716 39.6215C13.7725 39.6631 13.4972 39.8075 13.293 40.03Z" fill="url(#paint2_linear_1_142)"/>
<path d="M48.741 15.4489C48.533 12.6419 48.177 9.92087 47.968 8.43887C47.9538 8.34088 47.9114 8.24923 47.8459 8.17496C47.7804 8.10068 47.6947 8.04706 47.5993 8.02066C47.5039 7.99426 47.4028 7.99621 47.3085 8.02627C47.2141 8.05633 47.1306 8.1131 47.0681 8.18985C45.9481 9.56985 43.8171 12.1948 42.6351 13.6498L42.611 13.6808L42.548 13.758C42.548 13.765 42.548 13.771 42.548 13.778C42.2672 14.139 42.065 14.5546 41.9545 14.9984C41.8439 15.4423 41.8274 15.9043 41.9061 16.3549C41.9876 16.9007 42.1971 17.4194 42.5174 17.8688C42.8377 18.3182 43.2597 18.6856 43.749 18.9408C44.3075 19.2231 44.932 19.3487 45.5562 19.3043C46.1804 19.26 46.7808 19.0473 47.2938 18.6889C47.8067 18.3304 48.2129 17.8398 48.4691 17.2689C48.7254 16.6981 48.8221 16.0684 48.749 15.4469L48.741 15.4489Z" fill="url(#paint3_linear_1_142)"/>
<path d="M55.987 14.829C55.894 13.582 55.752 12.3639 55.635 11.4779C55.6213 11.3597 55.5727 11.2482 55.4955 11.1576C55.4182 11.0671 55.3157 11.0015 55.2011 10.9694C55.0865 10.9372 54.965 10.9401 54.8519 10.9772C54.7388 11.0143 54.6393 11.0843 54.566 11.1781L52.45 13.7851L52.437 13.8031L52.399 13.8471V13.8571C52.2526 14.0488 52.1425 14.2656 52.074 14.497C51.9943 14.7807 51.9782 15.0786 52.027 15.3693C52.0758 15.6599 52.1882 15.9362 52.3562 16.1784C52.5242 16.4205 52.7437 16.6225 52.9989 16.7699C53.2541 16.9174 53.5387 17.0065 53.8324 17.0311C54.1261 17.0558 54.4216 17.0152 54.6977 16.9122C54.9739 16.8093 55.224 16.6467 55.4299 16.4359C55.6359 16.2251 55.7927 15.9715 55.8892 15.693C55.9857 15.4145 56.0194 15.1181 55.988 14.8251L55.987 14.829Z" fill="url(#paint4_linear_1_142)"/>
<path d="M65.454 20.177C65.0983 19.875 64.6372 19.7266 64.172 19.7641L28.978 22.6201C28.5682 22.6405 28.1815 22.8158 27.8958 23.1103C27.6101 23.4049 27.4469 23.7968 27.439 24.207V57.9512C26.0154 56.9604 24.3205 56.4333 22.586 56.4421C21.0657 56.5258 19.6031 57.0531 18.3791 57.959C17.1552 58.8648 16.2236 60.1094 15.6993 61.539C15.1751 62.9687 15.0813 64.5206 15.4295 66.0029C15.7777 67.4853 16.5526 68.8332 17.6585 69.8799C18.7644 70.9266 20.1528 71.6261 21.652 71.8923C23.1513 72.1585 24.6957 71.9797 26.0943 71.3777C27.4929 70.7757 28.6845 69.7767 29.5217 68.5049C30.3589 67.233 30.8051 65.7439 30.805 64.2212C30.805 64.1212 30.798 64.0211 30.79 63.9211V63.8042C30.8022 63.7722 30.809 63.7383 30.81 63.7041V25.6682L62.639 23.0852L62.5831 30.812L37.8511 32.8401C37.4114 32.8725 37.0014 33.0739 36.707 33.4021C36.5658 33.5584 36.4583 33.7423 36.3914 33.9421C36.3245 34.1419 36.2995 34.3531 36.318 34.563C36.3681 34.9699 36.5669 35.3441 36.8761 35.6133C37.1853 35.8824 37.5831 36.0275 37.993 36.021C38.042 36.021 38.093 36.0211 38.139 36.0141L62.5831 34.0141L62.639 54.7522C61.2099 53.762 59.5126 53.2317 57.774 53.2322C56.2533 53.3152 54.7903 53.8419 53.5658 54.7475C52.3413 55.6531 51.4091 56.8979 50.8843 58.3276C50.3595 59.7573 50.2651 61.3095 50.613 62.7922C50.9608 64.2749 51.7356 65.6232 52.8414 66.6704C53.9473 67.7176 55.3358 68.4177 56.8353 68.6843C58.3347 68.9509 59.8794 68.772 61.2784 68.1701C62.6774 67.5683 63.8694 66.5696 64.707 65.2976C65.5445 64.0256 65.9909 62.5361 65.991 61.0132L66.004 21.354C66.0019 21.1299 65.9517 20.9088 65.8569 20.7058C65.762 20.5027 65.6246 20.3224 65.454 20.177ZM27.439 64.2212C27.4926 65.1926 27.2536 66.1576 26.7527 66.9917C26.2519 67.8257 25.5123 68.4903 24.6297 68.8994C23.747 69.3085 22.7619 69.4434 21.8017 69.2866C20.8416 69.1298 19.9507 68.6882 19.2441 68.0195C18.5375 67.3508 18.0478 66.4854 17.8384 65.5354C17.6289 64.5853 17.7094 63.5945 18.0694 62.6907C18.4293 61.7868 19.0523 61.0118 19.8575 60.4658C20.6627 59.9198 21.6132 59.628 22.586 59.6282C23.8381 59.5961 25.0518 60.0613 25.9615 60.9221C26.8713 61.7829 27.4029 62.9693 27.4401 64.2212H27.439ZM62.6221 61.009C62.6753 61.9801 62.4359 62.9449 61.9349 63.7785C61.4339 64.6122 60.6943 65.2763 59.8118 65.685C58.9293 66.0938 57.9444 66.2283 56.9846 66.0713C56.0248 65.9142 55.1341 65.4729 54.4279 64.8042C53.7217 64.1355 53.2323 63.2704 53.0231 62.3205C52.8139 61.3707 52.8945 60.3798 53.2544 59.4763C53.6144 58.5728 54.2371 57.7982 55.0422 57.2524C55.8472 56.7067 56.7975 56.4149 57.7701 56.415C59.0221 56.383 60.2357 56.8486 61.1451 57.7097C62.0546 58.5708 62.5857 59.7571 62.6221 61.009Z" fill="#041E42"/>
<path d="M28.019 22.0042H28.039C28.3436 22.0027 28.6448 21.9399 28.9246 21.8196C29.2045 21.6994 29.4572 21.5242 29.668 21.3043C29.873 21.0957 30.034 20.8482 30.1415 20.5762C30.2491 20.3043 30.301 20.0136 30.294 19.7212C30.2838 19.1301 30.0406 18.5667 29.6174 18.1539C29.1943 17.741 28.6252 17.5119 28.034 17.5162H28.006C27.5606 17.5116 27.124 17.6401 26.7521 17.8853C26.3803 18.1305 26.0901 18.4812 25.9189 18.8924C25.7476 19.3036 25.703 19.7565 25.7909 20.1932C25.8788 20.6298 26.095 21.0301 26.412 21.3431C26.6232 21.5535 26.8739 21.7204 27.1497 21.8338C27.4254 21.9472 27.7208 22.0051 28.019 22.0042Z" fill="url(#paint5_linear_1_142)"/>
<path d="M73.409 46.1542H73.4291C73.7336 46.1526 74.0348 46.0899 74.3146 45.9696C74.5945 45.8494 74.8472 45.6741 75.058 45.4542C75.2631 45.2456 75.4243 44.9978 75.5318 44.7257C75.6394 44.4536 75.6911 44.1625 75.6841 43.87C75.6733 43.2787 75.4297 42.7157 75.0062 42.3029C74.5827 41.89 74.0134 41.6608 73.422 41.6652H73.3951C73.0962 41.6598 72.7993 41.714 72.5217 41.8248C72.2441 41.9357 71.9914 42.1009 71.7785 42.3107C71.5655 42.5204 71.3966 42.7706 71.2816 43.0465C71.1666 43.3224 71.1078 43.6185 71.1086 43.9174C71.1095 44.2163 71.17 44.5118 71.2866 44.787C71.4032 45.0622 71.5736 45.3114 71.7878 45.5199C72.0019 45.7284 72.2556 45.8921 72.5338 46.0013C72.812 46.1106 73.1092 46.1632 73.4081 46.1561L73.409 46.1542Z" fill="url(#paint6_linear_1_142)"/>
<defs>
<linearGradient id="paint0_linear_1_142" x1="68.8218" y1="31.1354" x2="80.005" y2="31.1354" gradientUnits="userSpaceOnUse">
<stop stop-color="#664BCD"/>
<stop offset="1" stop-color="#00A9E1"/>
</linearGradient>
<linearGradient id="paint1_linear_1_142" x1="14.8073" y1="30.0287" x2="20.1532" y2="30.0287" gradientUnits="userSpaceOnUse">
<stop stop-color="#664BCD"/>
<stop offset="1" stop-color="#00A9E1"/>
</linearGradient>
<linearGradient id="paint2_linear_1_142" x1="7.97624" y1="49.1902" x2="20.6619" y2="49.1902" gradientUnits="userSpaceOnUse">
<stop stop-color="#664BCD"/>
<stop offset="1" stop-color="#00A9E1"/>
</linearGradient>
<linearGradient id="paint3_linear_1_142" x1="42.6179" y1="12.5379" x2="49.5403" y2="12.5379" gradientUnits="userSpaceOnUse">
<stop stop-color="#664BCD"/>
<stop offset="1" stop-color="#00A9E1"/>
</linearGradient>
<linearGradient id="paint4_linear_1_142" x1="52.2034" y1="10.5573" x2="56.1994" y2="10.5573" gradientUnits="userSpaceOnUse">
<stop stop-color="#664BCD"/>
<stop offset="1" stop-color="#00A9E1"/>
</linearGradient>
<linearGradient id="paint5_linear_1_142" x1="25.747" y1="19.7601" x2="30.2946" y2="19.7601" gradientUnits="userSpaceOnUse">
<stop stop-color="#664BCD"/>
<stop offset="1" stop-color="#00A9E1"/>
</linearGradient>
<linearGradient id="paint6_linear_1_142" x1="71.1086" y1="43.9108" x2="75.6847" y2="43.9108" gradientUnits="userSpaceOnUse">
<stop stop-color="#664BCD"/>
<stop offset="1" stop-color="#00A9E1"/>
</linearGradient>
</defs>
</svg>
