<svg width="88" height="80" viewBox="0 0 88 80" fill="none" xmlns="http://www.w3.org/2000/svg">
<path d="M12.43 31.4771C12.7137 31.5275 13.0052 31.5127 13.2824 31.4338C13.5596 31.355 13.8153 31.2142 14.03 31.022C15.0985 30.194 16.3788 29.6842 17.724 29.551C18.2053 29.513 18.6884 29.5023 19.171 29.519C19.465 29.519 19.753 29.53 20.041 29.519C20.3998 29.5097 20.7415 29.3635 20.996 29.1104C21.2505 28.8572 21.3985 28.5162 21.4098 28.1575C21.421 27.7987 21.2946 27.4492 21.0565 27.1807C20.8184 26.9121 20.4865 26.7447 20.129 26.7129C18.1239 26.4377 16.0819 26.7505 14.251 27.613L13.963 27.75C12.8806 28.0887 11.9653 28.8223 11.399 29.8049V30.437C11.4844 30.6751 11.621 30.8916 11.7992 31.0713C11.9773 31.251 12.1926 31.3895 12.43 31.4771Z" fill="url(#paint0_linear_1_121)"/>
<path d="M62.576 24.541C62.919 24.557 63.257 24.5551 63.639 24.5481H64.231H64.94L64.935 25.867C64.929 26.25 64.923 26.6101 64.943 26.9671C64.932 27.1648 64.9623 27.3627 65.0318 27.5481C65.1014 27.7335 65.2087 27.9025 65.347 28.0442C65.4854 28.1859 65.6516 28.2975 65.8353 28.3716C66.019 28.4457 66.216 28.4807 66.414 28.4746C66.6119 28.4685 66.8064 28.4212 66.9852 28.336C67.1639 28.2507 67.323 28.129 67.4523 27.979C67.5816 27.829 67.6782 27.6537 67.7362 27.4644C67.7942 27.275 67.8122 27.0759 67.789 26.8792C67.789 26.5352 67.789 26.1882 67.789 25.8272V24.5271L69.148 24.5352C69.562 24.5412 69.938 24.548 70.309 24.522C70.4983 24.5225 70.6858 24.4851 70.8603 24.4116C71.0348 24.3382 71.1927 24.2303 71.3247 24.0945C71.4567 23.9587 71.5599 23.7979 71.6284 23.6214C71.6968 23.4448 71.7291 23.2564 71.7232 23.0672C71.7173 22.8779 71.6733 22.6917 71.594 22.5198C71.5147 22.3479 71.4015 22.1937 71.2614 22.0664C71.1212 21.9392 70.9569 21.8415 70.7781 21.7791C70.5994 21.7166 70.4099 21.6908 70.221 21.7031C69.845 21.6941 69.472 21.695 69.081 21.698H67.795V20.49C67.795 20.128 67.8 19.79 67.787 19.457C67.7899 19.216 67.763 18.9755 67.707 18.741C67.612 18.4373 67.4157 18.1756 67.1509 17.9993C66.8861 17.8229 66.5688 17.7426 66.252 17.772C65.9421 17.7807 65.6456 17.9001 65.4158 18.1082C65.186 18.3163 65.0382 18.5995 64.999 18.907C64.9457 19.3718 64.9163 19.8393 64.911 20.3071C64.904 20.5421 64.898 20.7811 64.885 21.0261L64.854 21.7H63.649C63.286 21.7 62.939 21.7 62.591 21.7C62.392 21.6776 62.1905 21.6975 61.9997 21.7581C61.8088 21.8187 61.6329 21.9188 61.4832 22.0518C61.3335 22.1848 61.2135 22.3479 61.1309 22.5303C61.0483 22.7127 61.005 22.9104 61.0038 23.1106C61.0026 23.3109 61.0435 23.509 61.1239 23.6924C61.2043 23.8758 61.3224 24.0403 61.4705 24.1751C61.6185 24.3099 61.7933 24.412 61.9834 24.4749C62.1735 24.5377 62.3747 24.56 62.574 24.5401L62.576 24.541Z" fill="url(#paint1_linear_1_121)"/>
<path d="M26.677 26.5709C26.7058 26.8244 26.7489 27.0763 26.806 27.325C26.8693 27.6357 27.0332 27.9168 27.2723 28.1251C27.5115 28.3333 27.8125 28.4569 28.129 28.4769C28.4227 28.521 28.7225 28.4586 28.9741 28.3006C29.2256 28.1426 29.4122 27.8998 29.5 27.616C29.5546 27.3209 29.566 27.0194 29.534 26.721C29.524 26.545 29.516 26.3689 29.517 26.1959C29.517 25.9419 29.511 25.685 29.503 25.429C29.4745 24.8402 29.4865 24.2501 29.539 23.6629C29.8044 22.0986 30.4965 20.6381 31.539 19.442C31.6544 19.2963 31.7399 19.1293 31.7907 18.9505C31.8416 18.7718 31.8567 18.5848 31.8352 18.4002C31.8138 18.2156 31.7562 18.0369 31.6657 17.8746C31.5752 17.7122 31.4537 17.5693 31.308 17.4539C31.1623 17.3386 30.9953 17.253 30.8166 17.2022C30.6378 17.1514 30.4508 17.1363 30.2662 17.1578C30.0816 17.1792 29.903 17.2368 29.7407 17.3272C29.5783 17.4177 29.4354 17.5392 29.32 17.6849C27.5257 19.7685 26.5426 22.4293 26.551 25.179L26.572 25.419C26.598 25.734 26.633 26.1519 26.677 26.5709Z" fill="url(#paint2_linear_1_121)"/>
<path d="M28.931 13.464C29.119 13.475 29.31 13.474 29.495 13.464H29.795L30.417 13.4741C30.458 13.4681 30.5 13.4639 30.541 13.4589C31.127 13.3869 31.711 13.3171 32.284 13.1931C33.9791 12.8175 35.5544 12.0271 36.869 10.893C37.1283 10.7048 37.3141 10.4324 37.3946 10.1223C37.475 9.81211 37.4451 9.48358 37.31 9.19305C37.2023 8.90327 36.9949 8.66133 36.7249 8.51068C36.455 8.36003 36.1402 8.31053 35.837 8.37103C35.4394 8.48122 35.0694 8.67365 34.751 8.93597C33.6992 9.76338 32.4535 10.3086 31.132 10.52C30.6568 10.5796 30.1779 10.6055 29.699 10.5971C29.443 10.5971 29.186 10.6029 28.93 10.6159C28.5621 10.6297 28.2138 10.7856 27.9584 11.0507C27.703 11.3159 27.5603 11.6699 27.5603 12.038C27.5603 12.4062 27.703 12.7599 27.9584 13.0251C28.2138 13.2903 28.5621 13.4461 28.93 13.4599L28.931 13.464Z" fill="url(#paint3_linear_1_121)"/>
<path d="M53.502 16.98C53.272 17.08 53.044 17.1859 52.822 17.2949C52.5162 17.426 52.2666 17.661 52.1171 17.9583C51.9676 18.2555 51.9278 18.5958 52.0048 18.9194C52.0818 19.2431 52.2706 19.5293 52.538 19.7273C52.8053 19.9253 53.134 20.0226 53.466 20.002L53.531 19.9919C53.6462 19.9811 53.7601 19.9591 53.871 19.926C55.2543 19.4839 56.5352 18.7695 57.6383 17.825C58.7413 16.8804 59.6443 15.7248 60.294 14.426C60.3846 14.2558 60.439 14.0687 60.4539 13.8765C60.4688 13.6842 60.4439 13.491 60.3806 13.3088C60.3173 13.1267 60.2171 12.9597 60.0862 12.8181C59.9553 12.6765 59.7966 12.5635 59.62 12.4861C59.4468 12.4053 59.2581 12.363 59.067 12.3621C58.8046 12.3755 58.5492 12.4512 58.3221 12.5833C58.0949 12.7153 57.9025 12.8997 57.761 13.1211L57.469 13.521C56.9126 14.3612 56.2595 15.1332 55.523 15.821C54.9093 16.3037 54.2285 16.694 53.502 16.98Z" fill="url(#paint4_linear_1_121)"/>
<path d="M59.036 24.745C59.0334 24.1748 58.8061 23.6285 58.4034 23.2247C58.0008 22.821 57.4552 22.5922 56.885 22.588H56.836C56.2688 22.588 55.7245 22.8116 55.321 23.2101C55.1167 23.407 54.954 23.6428 54.8426 23.9037C54.7311 24.1646 54.6731 24.4454 54.672 24.7291C54.6801 25.297 54.9074 25.8397 55.3064 26.2438C55.7055 26.6478 56.2453 26.8819 56.813 26.8971C57.3922 26.9033 57.9505 26.6806 58.3667 26.2777C58.7829 25.8748 59.0234 25.3241 59.036 24.745Z" fill="url(#paint5_linear_1_121)"/>
<path d="M18.541 21.9081C18.8271 21.9094 19.1106 21.8538 19.3749 21.7443C19.6391 21.6348 19.879 21.4736 20.0803 21.2704C20.2816 21.0671 20.4403 20.8258 20.5473 20.5604C20.6542 20.2951 20.7071 20.011 20.703 19.725C20.7086 19.442 20.6565 19.161 20.5498 18.8988C20.4432 18.6366 20.2842 18.399 20.0826 18.2003C19.881 18.0016 19.6411 17.8461 19.3774 17.7433C19.1137 17.6404 18.8319 17.5922 18.549 17.6019C18.2551 17.6004 17.9639 17.6578 17.6925 17.7706C17.4211 17.8835 17.1752 18.0494 16.969 18.2589C16.7716 18.456 16.6159 18.691 16.5113 18.9496C16.4067 19.2082 16.3552 19.4851 16.36 19.764C16.373 20.335 16.6081 20.8783 17.0154 21.2787C17.4226 21.679 17.9699 21.9048 18.541 21.9081Z" fill="url(#paint6_linear_1_121)"/>
<path d="M35.267 20.9649C35.2672 21.254 35.3251 21.5401 35.4374 21.8065C35.5497 22.0728 35.7141 22.314 35.921 22.5159C36.3391 22.8998 36.8807 23.1214 37.448 23.1409C38.0271 23.1309 38.5789 22.8929 38.9837 22.4786C39.3885 22.0643 39.6135 21.507 39.61 20.9278C39.607 20.6466 39.5478 20.3689 39.436 20.1109C39.3243 19.8529 39.1621 19.6197 38.9591 19.4251C38.756 19.2306 38.5162 19.0785 38.2536 18.9778C37.9911 18.8772 37.711 18.83 37.43 18.8389H37.411C37.1285 18.8297 36.8471 18.8782 36.584 18.9815C36.3209 19.0849 36.0817 19.241 35.8809 19.44C35.6802 19.639 35.5222 19.8768 35.4167 20.139C35.3111 20.4012 35.2602 20.6823 35.267 20.9649Z" fill="url(#paint7_linear_1_121)"/>
<path d="M72.599 31.7341H72.618C72.91 31.7324 73.1987 31.6718 73.4669 31.5562C73.7351 31.4405 73.9772 31.2722 74.179 31.061C74.3754 30.8614 74.5298 30.6244 74.6329 30.364C74.7359 30.1036 74.7856 29.8252 74.779 29.5452C74.7693 28.9784 74.5361 28.4384 74.1303 28.0427C73.7245 27.647 73.1788 27.4276 72.612 27.4321H72.586C72.2981 27.4243 72.0116 27.4742 71.7435 27.5791C71.4753 27.684 71.2309 27.8418 71.0249 28.043C70.8188 28.2441 70.6552 28.4845 70.5437 28.75C70.4323 29.0156 70.3754 29.3009 70.3763 29.5889C70.3771 29.8768 70.4358 30.1617 70.5488 30.4265C70.6619 30.6914 70.8269 30.9307 71.0342 31.1306C71.2415 31.3305 71.4868 31.4868 71.7556 31.5901C72.0244 31.6934 72.3112 31.7416 72.599 31.7319V31.7341Z" fill="url(#paint8_linear_1_121)"/>
<path d="M44.026 27.7329C41.9215 27.6798 39.849 28.2556 38.0733 29.3862C36.2975 30.5169 34.8992 32.1512 34.0571 34.0806C33.2149 36.0099 32.967 38.1466 33.3453 40.2175C33.7235 42.2884 34.7105 44.1994 36.1803 45.7066C37.6501 47.2137 39.5359 48.2485 41.5967 48.6785C43.6574 49.1085 45.7996 48.9142 47.7495 48.1206C49.6994 47.3271 51.3683 45.9702 52.5432 44.2234C53.718 42.4766 54.3453 40.4191 54.345 38.314C54.3763 35.5435 53.3075 32.8737 51.373 30.8901C49.4386 28.9066 46.7964 27.7711 44.026 27.7329ZM44.026 46.249C42.434 46.357 40.8464 45.9834 39.4695 45.177C38.0926 44.3707 36.9901 43.1688 36.3054 41.7276C35.6207 40.2863 35.3854 38.6725 35.6301 37.0957C35.8748 35.519 36.5882 34.0522 37.6776 32.8862C38.767 31.7203 40.1819 30.9092 41.7384 30.5581C43.295 30.207 44.9211 30.3323 46.4055 30.9177C47.8898 31.5031 49.1638 32.5215 50.0616 33.8406C50.9595 35.1596 51.4398 36.7183 51.44 38.314C51.5035 40.3479 50.7593 42.3242 49.3701 43.811C47.9808 45.2979 46.0595 46.1744 44.026 46.249Z" fill="#041E42"/>
<path d="M56.579 40.929C56.6311 42.5915 57.1716 44.2019 58.1333 45.5591C59.0949 46.9163 60.4349 47.96 61.9862 48.5603C63.5374 49.1606 65.2311 49.2907 66.8558 48.9343C68.4805 48.578 69.9642 47.751 71.1219 46.5566C72.2795 45.3622 73.0596 43.8533 73.365 42.2183C73.6703 40.5832 73.4873 38.8945 72.8388 37.3628C72.1903 35.8311 71.105 34.5244 69.7184 33.6057C68.3318 32.687 66.7053 32.1971 65.042 32.197C62.7628 32.2357 60.5919 33.1766 59.0055 34.8135C57.419 36.4504 56.5464 38.6496 56.579 40.929ZM70.6 40.929C70.5072 42.008 70.1023 43.0368 69.4348 43.8896C68.7672 44.7425 67.8658 45.3827 66.8406 45.7319C65.8154 46.0812 64.7107 46.1244 63.6613 45.8564C62.6119 45.5885 61.6631 45.0209 60.9309 44.2229C60.1986 43.4249 59.7145 42.4311 59.5375 41.3625C59.3605 40.294 59.4984 39.197 59.9343 38.2056C60.3702 37.2141 61.0853 36.371 61.9923 35.7791C62.8993 35.1871 63.959 34.872 65.042 34.8721C66.5807 34.9427 68.0289 35.6193 69.0702 36.7542C70.1116 37.889 70.6616 39.3899 70.6 40.929Z" fill="#041E42"/>
<path d="M60.517 69.0948H28.988V63.8858C28.9859 61.5625 29.524 59.2706 30.5597 57.191C31.5954 55.1114 33.1005 53.301 34.956 51.9029C37.4845 54.0638 40.7014 55.2511 44.0275 55.2511C47.3536 55.2511 50.5705 54.0638 53.099 51.9029C54.7332 53.1314 56.0981 54.6821 57.1093 56.4591C58.1205 58.236 58.7565 60.2015 58.978 62.234C59.0233 62.6152 59.2162 62.9633 59.5153 63.2039C59.8144 63.4445 60.1959 63.5583 60.578 63.5208C60.9603 63.4786 61.3104 63.2866 61.5512 62.9866C61.7921 62.6867 61.9042 62.3035 61.863 61.921C61.5755 59.2749 60.7007 56.7263 59.3025 54.4615C57.9042 52.1967 56.0178 50.2726 53.781 48.8299C53.5054 48.6514 53.1775 48.5715 52.8507 48.6031C52.5238 48.6347 52.2173 48.776 51.981 49.004C50.9434 50.0611 49.7056 50.9008 48.3398 51.474C46.974 52.0472 45.5077 52.3424 44.0265 52.3424C42.5453 52.3424 41.079 52.0472 39.7132 51.474C38.3474 50.9008 37.1096 50.0611 36.072 49.004C35.836 48.7755 35.5294 48.6337 35.2024 48.6021C34.8754 48.5705 34.5474 48.6509 34.272 48.8299C31.7574 50.4539 29.6902 52.6824 28.2596 55.3118C26.829 57.9412 26.0806 60.8875 26.083 63.8809V70.5428C26.0829 70.7336 26.1203 70.9227 26.1932 71.099C26.2662 71.2752 26.3731 71.4355 26.5079 71.5704C26.6428 71.7053 26.8029 71.8123 26.9791 71.8853C27.1553 71.9584 27.3442 71.9959 27.535 71.9959H60.517C60.8956 71.986 61.2554 71.8285 61.5197 71.5572C61.784 71.2859 61.9319 70.922 61.9319 70.5433C61.9319 70.1645 61.784 69.8009 61.5197 69.5296C61.2554 69.2583 60.8956 69.1008 60.517 69.0909V69.0948Z" fill="#041E42"/>
<path d="M73.384 50.036C73.1086 49.8569 72.7806 49.7766 72.4536 49.8082C72.1266 49.8398 71.82 49.9813 71.584 50.2098C69.9662 51.8192 67.7849 52.735 65.503 52.7628C65.1244 52.7727 64.7646 52.9302 64.5003 53.2015C64.236 53.4728 64.0881 53.8366 64.0881 54.2154C64.0881 54.5942 64.236 54.958 64.5003 55.2293C64.7646 55.5006 65.1244 55.6579 65.503 55.6678C68.1174 55.6517 70.6485 54.7473 72.681 53.1029C74.0571 54.1846 75.1693 55.565 75.9335 57.1397C76.6977 58.7145 77.0938 60.4426 77.092 62.1929V66.0079H65.502C65.1234 66.0178 64.7636 66.1753 64.4993 66.4466C64.235 66.7179 64.0871 67.0815 64.0871 67.4603C64.0871 67.839 64.235 68.2029 64.4993 68.4742C64.7636 68.7455 65.1234 68.903 65.502 68.9129H78.548C78.9331 68.9129 79.3024 68.7599 79.5747 68.4876C79.847 68.2153 80 67.8459 80 67.4608V62.192C80.0018 59.7741 79.3971 57.3943 78.2412 55.2706C77.0854 53.1469 75.4154 51.3472 73.384 50.036Z" fill="#041E42"/>
<path d="M22.957 32.005C21.1542 31.8946 19.3598 32.3283 17.8065 33.2499C16.2532 34.1715 15.0125 35.5386 14.2454 37.1737C13.4783 38.8089 13.2201 40.6369 13.5043 42.4205C13.7885 44.2042 14.602 45.8613 15.8392 47.1771C17.0765 48.4929 18.6806 49.4067 20.4434 49.7999C22.2063 50.1932 24.0466 50.0477 25.7258 49.3825C27.405 48.7173 28.8457 47.563 29.861 46.0692C30.8763 44.5755 31.4195 42.8112 31.42 41.005C31.4869 38.6905 30.6338 36.4438 29.0476 34.757C27.4613 33.0701 25.2713 32.0805 22.957 32.005ZM22.957 47.245C19.891 47.245 17.397 44.445 17.397 41.004C17.397 37.563 19.891 34.7631 22.957 34.7631C26.023 34.7631 28.515 37.563 28.515 41.004C28.515 44.445 26.023 47.245 22.957 47.245Z" fill="#041E42"/>
<path d="M15.317 53.1039C17.3494 54.7485 19.8806 55.653 22.495 55.6688C22.8736 55.6589 23.2334 55.5017 23.4977 55.2304C23.762 54.959 23.9099 54.5952 23.9099 54.2164C23.9099 53.8377 23.762 53.4738 23.4977 53.2025C23.2334 52.9312 22.8736 52.774 22.495 52.764C20.2131 52.7361 18.0319 51.8202 16.414 50.2108C16.1785 49.9815 15.8719 49.8393 15.5447 49.8075C15.2175 49.7757 14.8893 49.8564 14.614 50.036C12.5824 51.3475 10.9122 53.1476 9.75638 55.2716C8.60055 57.3957 7.99597 59.7758 7.99799 62.194V67.463C7.99826 67.848 8.15131 68.2171 8.42356 68.4894C8.6958 68.7616 9.06497 68.9147 9.44999 68.9149H22.493C22.8783 68.9149 23.2479 68.7619 23.5204 68.4894C23.7929 68.2169 23.946 67.8474 23.946 67.462C23.946 67.0767 23.7929 66.7069 23.5204 66.4345C23.2479 66.162 22.8783 66.0089 22.493 66.0089H10.903V62.194C10.9015 60.4433 11.298 58.7153 12.0627 57.1405C12.8275 55.5657 13.9403 54.1853 15.317 53.1039Z" fill="#041E42"/>
<path d="M46.811 20.638C47.2654 20.3748 47.6303 19.9812 47.8584 19.5081C48.0864 19.0351 48.1671 18.5044 48.09 17.985V13.1209L48.55 13.129C48.593 13.122 48.634 13.1191 48.675 13.1131C49.259 13.0401 49.845 12.97 50.418 12.846C52.1131 12.4705 53.6885 11.6802 55.003 10.546C55.2623 10.3578 55.448 10.0852 55.5283 9.77499C55.6086 9.46481 55.5784 9.13642 55.443 8.84604C55.3355 8.55648 55.1285 8.31471 54.8589 8.16391C54.5894 8.01311 54.275 7.96312 53.972 8.02304C53.5742 8.13415 53.2042 8.32779 52.886 8.59116C51.8341 9.41829 50.5884 9.96317 49.267 10.1742C48.7915 10.2342 48.3122 10.2601 47.833 10.252C47.577 10.252 47.32 10.2521 47.064 10.2701H47.047C47.047 10.2701 46.134 10.2702 45.891 10.5182C45.576 10.8352 45.345 11.0429 45.406 12.2569C45.482 13.8149 45.67 15.745 45.67 15.745C45.2617 15.7186 44.8528 15.7881 44.4761 15.9481C44.0995 16.1081 43.7655 16.3541 43.501 16.6664C43.2365 16.9786 43.0488 17.3484 42.9528 17.7462C42.8569 18.144 42.8555 18.5587 42.9486 18.9571C43.0418 19.3556 43.2269 19.7268 43.4893 20.0409C43.7516 20.3549 44.0839 20.6031 44.4594 20.7657C44.8349 20.9283 45.2433 21.0007 45.6518 20.9771C46.0603 20.9536 46.4577 20.8347 46.812 20.63L46.811 20.638Z" fill="url(#paint9_linear_1_121)"/>
<defs>
<linearGradient id="paint0_linear_1_121" x1="11.399" y1="29.0611" x2="21.4105" y2="29.0611" gradientUnits="userSpaceOnUse">
<stop stop-color="#664BCD"/>
<stop offset="1" stop-color="#00A9E1"/>
</linearGradient>
<linearGradient id="paint1_linear_1_121" x1="61.0038" y1="23.1207" x2="71.7239" y2="23.1207" gradientUnits="userSpaceOnUse">
<stop stop-color="#664BCD"/>
<stop offset="1" stop-color="#00A9E1"/>
</linearGradient>
<linearGradient id="paint2_linear_1_121" x1="26.5509" y1="22.8195" x2="31.8447" y2="22.8195" gradientUnits="userSpaceOnUse">
<stop stop-color="#664BCD"/>
<stop offset="1" stop-color="#00A9E1"/>
</linearGradient>
<linearGradient id="paint3_linear_1_121" x1="27.5603" y1="10.91" x2="37.4388" y2="10.91" gradientUnits="userSpaceOnUse">
<stop stop-color="#664BCD"/>
<stop offset="1" stop-color="#00A9E1"/>
</linearGradient>
<linearGradient id="paint4_linear_1_121" x1="51.9665" y1="16.1834" x2="60.4581" y2="16.1834" gradientUnits="userSpaceOnUse">
<stop stop-color="#664BCD"/>
<stop offset="1" stop-color="#00A9E1"/>
</linearGradient>
<linearGradient id="paint5_linear_1_121" x1="54.672" y1="24.7426" x2="59.036" y2="24.7426" gradientUnits="userSpaceOnUse">
<stop stop-color="#664BCD"/>
<stop offset="1" stop-color="#00A9E1"/>
</linearGradient>
<linearGradient id="paint6_linear_1_121" x1="16.3597" y1="19.7544" x2="20.7034" y2="19.7544" gradientUnits="userSpaceOnUse">
<stop stop-color="#664BCD"/>
<stop offset="1" stop-color="#00A9E1"/>
</linearGradient>
<linearGradient id="paint7_linear_1_121" x1="35.2664" y1="20.9894" x2="39.6101" y2="20.9894" gradientUnits="userSpaceOnUse">
<stop stop-color="#664BCD"/>
<stop offset="1" stop-color="#00A9E1"/>
</linearGradient>
<linearGradient id="paint8_linear_1_121" x1="70.3763" y1="29.5827" x2="74.7796" y2="29.5827" gradientUnits="userSpaceOnUse">
<stop stop-color="#664BCD"/>
<stop offset="1" stop-color="#00A9E1"/>
</linearGradient>
<linearGradient id="paint9_linear_1_121" x1="42.8798" y1="14.4899" x2="55.5723" y2="14.4899" gradientUnits="userSpaceOnUse">
<stop stop-color="#664BCD"/>
<stop offset="1" stop-color="#00A9E1"/>
</linearGradient>
</defs>
</svg>
