<svg width="25" height="20" viewBox="0 0 25 20" fill="none" xmlns="http://www.w3.org/2000/svg">
<path d="M21.8211 0.76277H17.6846C17.6833 0.76277 17.6823 0.762024 17.6811 0.762024H13.3605C13.3592 0.762024 13.3582 0.76277 13.357 0.76277H3.93458C3.47664 0.76277 3.10529 1.13413 3.10529 1.59206C3.10529 2.04999 3.47664 2.42135 3.93458 2.42135H12.5312V7.41302C12.5312 7.86913 12.9044 8.24231 13.3605 8.24231H17.6811C18.1372 8.24231 18.5104 7.86913 18.5104 7.41302V2.42135H21.8211C22.3827 2.42135 22.8394 2.87812 22.8394 3.43972V16.561C22.8394 17.1226 22.3827 17.5794 21.8211 17.5794H8.69977C8.1385 17.5794 7.68181 17.1226 7.68181 16.561V7.44528C7.68181 6.98734 7.31045 6.61599 6.85252 6.61599H4.65987C4.20194 6.61599 3.83058 6.98734 3.83058 7.44528C3.83058 7.90321 4.20194 8.27457 4.65987 8.27457H6.02323V16.561C6.02323 18.037 7.22388 19.238 8.69977 19.238H21.8211C23.297 19.238 24.498 18.037 24.498 16.561V3.4398C24.498 1.96383 23.297 0.76277 21.8211 0.76277ZM16.8518 6.58373H14.1898V2.42135H16.8518V6.58373Z" fill="#0A1E47"/>
<path d="M1.32728 5.34703H6.44433C6.90227 5.34703 7.27362 4.97567 7.27362 4.51774C7.27362 4.0598 6.90227 3.68845 6.44433 3.68845H1.32728C0.869342 3.68845 0.497986 4.0598 0.497986 4.51774C0.497986 4.97567 0.869259 5.34703 1.32728 5.34703Z" fill="#0A1E47"/>
<path d="M20.2674 16.0091C20.7253 16.0091 21.0967 15.6378 21.0967 15.1798C21.0967 14.7219 20.7253 14.3505 20.2674 14.3505H17.6775C17.2196 14.3505 16.8482 14.7219 16.8482 15.1798C16.8482 15.6378 17.2196 16.0091 17.6775 16.0091H20.2674Z" fill="#0A1E47"/>
</svg>
