<svg width="30" height="30" viewBox="0 0 30 30" fill="none" xmlns="http://www.w3.org/2000/svg">
<g clip-path="url(#clip0_2_475)">
<path d="M14.9999 0C12.0332 0 9.13313 0.879735 6.66639 2.52796C4.19965 4.17618 2.27707 6.51886 1.14175 9.25975C0.00643819 12.0006 -0.290612 15.0166 0.288166 17.9264C0.866945 20.8361 2.29556 23.5088 4.39334 25.6066C6.49113 27.7044 9.16387 29.133 12.0736 29.7118C14.9833 30.2906 17.9993 29.9935 20.7402 28.8582C23.4811 27.7229 25.8238 25.8003 27.472 23.3336C29.1202 20.8668 29.9999 17.9667 29.9999 15C29.9999 11.0218 28.4196 7.20644 25.6065 4.3934C22.7935 1.58035 18.9782 0 14.9999 0V0ZM7.35192 17.473C7.35091 17.4891 7.34382 17.5042 7.33208 17.5152C7.32034 17.5262 7.30485 17.5323 7.28876 17.5322C7.27249 17.5318 7.25699 17.5252 7.2453 17.5139C7.23361 17.5026 7.22658 17.4873 7.2256 17.4711L7.10521 16.6105L7.21968 15.7342C7.22066 15.718 7.22769 15.7027 7.23938 15.6914C7.25107 15.68 7.26657 15.6735 7.28284 15.673C7.29925 15.673 7.31503 15.6794 7.32682 15.6908C7.33861 15.7022 7.34549 15.7178 7.346 15.7342L7.48416 16.6105L7.35192 17.473ZM7.94402 17.9961C7.94257 18.013 7.93492 18.0288 7.92254 18.0405C7.91016 18.0521 7.89392 18.0588 7.87692 18.0592C7.86013 18.0587 7.84412 18.052 7.83206 18.0403C7.82 18.0286 7.81277 18.0128 7.81179 17.9961L7.65587 16.6145L7.80784 15.1974C7.80878 15.1804 7.81595 15.1644 7.82797 15.1524C7.83998 15.1403 7.85601 15.1332 7.87297 15.1322C7.89014 15.1331 7.90641 15.1402 7.91875 15.1522C7.93109 15.1642 7.93867 15.1802 7.94008 15.1974L8.11574 16.6145L7.94402 17.9961ZM8.5756 18.2309C8.5756 18.2519 8.56729 18.2719 8.55248 18.2867C8.53767 18.3016 8.51759 18.3099 8.49666 18.3099C8.47572 18.3099 8.45564 18.3016 8.44083 18.2867C8.42603 18.2719 8.41771 18.2519 8.41771 18.2309L8.27166 16.6105L8.41771 14.9289C8.41771 14.908 8.42603 14.8879 8.44083 14.8731C8.45564 14.8583 8.47572 14.85 8.49666 14.85C8.51759 14.85 8.53767 14.8583 8.55248 14.8731C8.56729 14.8879 8.5756 14.908 8.5756 14.9289L8.74337 16.6105L8.5756 18.2309ZM9.21508 18.2822C9.21363 18.3062 9.20333 18.3287 9.18619 18.3455C9.16905 18.3623 9.14628 18.3721 9.12231 18.373C9.0982 18.3725 9.07518 18.3629 9.05794 18.346C9.0407 18.3291 9.03055 18.3063 9.02955 18.2822L8.88152 16.6105L9.02166 14.8836C9.02503 14.8605 9.03676 14.8396 9.05459 14.8247C9.07243 14.8097 9.09513 14.8019 9.11837 14.8026C9.14233 14.8036 9.1651 14.8134 9.18224 14.8302C9.19938 14.8469 9.20968 14.8695 9.21113 14.8934L9.36902 16.6204L9.21508 18.2822ZM9.8585 18.2961C9.857 18.3235 9.84518 18.3493 9.8254 18.3683C9.80563 18.3874 9.77937 18.3982 9.75192 18.3987C9.72432 18.3987 9.6978 18.388 9.67792 18.3689C9.65804 18.3497 9.64636 18.3236 9.64534 18.2961L9.51508 16.6105L9.64139 15C9.64139 14.9717 9.65262 14.9446 9.67261 14.9246C9.6926 14.9047 9.7197 14.8934 9.74797 14.8934C9.77624 14.8934 9.80335 14.9047 9.82333 14.9246C9.84332 14.9446 9.85455 14.9717 9.85455 15L10.0026 16.6026L9.8585 18.2961ZM10.5059 18.2961C10.5021 18.3251 10.4879 18.3518 10.466 18.3711C10.444 18.3904 10.4157 18.4011 10.3865 18.4011C10.3572 18.4011 10.3289 18.3904 10.307 18.3711C10.285 18.3518 10.2708 18.3251 10.2671 18.2961L10.1447 16.6125L10.2631 14.0132C10.2668 13.9841 10.281 13.9575 10.303 13.9381C10.325 13.9188 10.3532 13.9081 10.3825 13.9081C10.4118 13.9081 10.44 13.9188 10.462 13.9381C10.484 13.9575 10.4982 13.9841 10.5019 14.0132L10.642 16.6224L10.5059 18.2961ZM11.1513 18.2961C11.1498 18.331 11.1351 18.3641 11.1102 18.3886C11.0853 18.4131 11.052 18.4273 11.0171 18.4283C10.9823 18.4273 10.9492 18.413 10.9246 18.3885C10.9001 18.3639 10.8858 18.3308 10.8848 18.2961L10.7684 16.6224L10.8809 13.4211C10.8819 13.3863 10.8961 13.3532 10.9207 13.3286C10.9453 13.3041 10.9783 13.2898 11.0131 13.2888C11.0481 13.2898 11.0813 13.304 11.1062 13.3285C11.1312 13.353 11.1458 13.3861 11.1473 13.4211L11.2776 16.6243L11.1513 18.2961ZM11.8184 18.2704C11.8184 18.3091 11.803 18.3463 11.7756 18.3737C11.7482 18.4011 11.711 18.4164 11.6723 18.4164C11.6336 18.4164 11.5964 18.4011 11.569 18.3737C11.5416 18.3463 11.5263 18.3091 11.5263 18.2704L11.4197 16.6125C11.4197 16.6125 11.5263 13.1428 11.5263 13.1408C11.5263 13.1021 11.5416 13.0649 11.569 13.0375C11.5964 13.0101 11.6336 12.9947 11.6723 12.9947C11.711 12.9947 11.7482 13.0101 11.7756 13.0375C11.803 13.0649 11.8184 13.1021 11.8184 13.1408L11.9407 16.6125L11.8184 18.2704ZM12.4835 18.2586C12.4835 18.301 12.4667 18.3416 12.4367 18.3716C12.4067 18.4016 12.366 18.4184 12.3236 18.4184C12.2812 18.4184 12.2406 18.4016 12.2106 18.3716C12.1806 18.3416 12.1638 18.301 12.1638 18.2586L12.0631 16.6125L12.1598 13.0263C12.1598 12.9839 12.1767 12.9433 12.2066 12.9133C12.2366 12.8833 12.2773 12.8664 12.3197 12.8664C12.3621 12.8664 12.4027 12.8833 12.4327 12.9133C12.4627 12.9433 12.4796 12.9839 12.4796 13.0263L12.5901 16.6145L12.4835 18.2586ZM13.1506 18.2447C13.146 18.2874 13.1259 18.3268 13.094 18.3554C13.0621 18.3841 13.0208 18.3999 12.9779 18.3999C12.935 18.3999 12.8937 18.3841 12.8618 18.3554C12.8299 18.3268 12.8098 18.2874 12.8052 18.2447L12.7124 16.6125L12.8032 13.1171C12.8043 13.0715 12.8229 13.0282 12.8554 12.9961C12.8878 12.9641 12.9313 12.9459 12.9769 12.9454C12.9996 12.9451 13.0222 12.9494 13.0432 12.9579C13.0643 12.9664 13.0835 12.979 13.0996 12.995C13.1158 13.011 13.1286 13.03 13.1373 13.0509C13.1461 13.0719 13.1506 13.0944 13.1506 13.1171L13.2552 16.6125L13.1506 18.2447ZM13.8256 18.2447C13.8126 18.2842 13.7875 18.3186 13.7538 18.343C13.7202 18.3674 13.6797 18.3805 13.6381 18.3805C13.5965 18.3805 13.556 18.3674 13.5224 18.343C13.4887 18.3186 13.4636 18.2842 13.4506 18.2447L13.3677 16.6224L13.4506 13.2553C13.4636 13.2158 13.4887 13.1814 13.5224 13.157C13.556 13.1326 13.5965 13.1195 13.6381 13.1195C13.6797 13.1195 13.7202 13.1326 13.7538 13.157C13.7875 13.1814 13.8126 13.2158 13.8256 13.2553L13.9184 16.6243L13.8256 18.2447ZM14.5124 18.073V18.2309C14.5113 18.2841 14.4901 18.3348 14.4532 18.373C14.4334 18.3947 14.4091 18.4117 14.3819 18.4228C14.3547 18.4338 14.3254 18.4387 14.296 18.437C14.2667 18.4353 14.2382 18.4271 14.2124 18.4129C14.1867 18.3988 14.1645 18.3791 14.1473 18.3553C14.1189 18.3221 14.1022 18.2805 14.0999 18.2368C14.0999 18.2368 14.023 16.6283 14.023 16.6263L14.0999 12.6572V12.6197C14.0999 12.5862 14.1084 12.5532 14.1246 12.5238C14.1408 12.4945 14.1643 12.4698 14.1927 12.452C14.2245 12.4297 14.2625 12.418 14.3013 12.4184C14.3376 12.4137 14.3745 12.4192 14.4078 12.4342C14.4356 12.452 14.4585 12.4766 14.4744 12.5055C14.4902 12.5345 14.4986 12.567 14.4986 12.6L14.5835 16.6086L14.5124 18.073ZM15.1796 18.2112C15.1796 18.2677 15.1571 18.3219 15.1171 18.3619C15.0771 18.4019 15.0229 18.4243 14.9664 18.4243C14.9099 18.4243 14.8556 18.4019 14.8157 18.3619C14.7757 18.3219 14.7532 18.2677 14.7532 18.2112L14.7098 17.4217L14.6664 16.6184L14.7532 12.2763V12.2368C14.7572 12.1838 14.7808 12.1341 14.8195 12.0976C14.8582 12.061 14.9092 12.0403 14.9624 12.0395C15.0167 12.0388 15.0691 12.0589 15.1091 12.0955C15.1491 12.1322 15.1736 12.1827 15.1776 12.2368L15.2723 16.6105L15.1796 18.2112ZM20.9526 18.4263H15.5684C15.5121 18.4215 15.4597 18.396 15.4211 18.3549C15.3825 18.3137 15.3604 18.2597 15.3592 18.2033V12.0395C15.3592 11.927 15.4006 11.8678 15.5565 11.8125C15.9526 11.6594 16.3734 11.5804 16.798 11.5796C17.6534 11.5801 18.4776 11.9006 19.1087 12.478C19.7398 13.0554 20.1321 13.848 20.2085 14.7C20.4463 14.6016 20.7011 14.5506 20.9585 14.55C21.472 14.55 21.9645 14.754 22.3276 15.1171C22.6907 15.4802 22.8947 15.9727 22.8947 16.4862C22.8947 16.9997 22.6907 17.4922 22.3276 17.8553C21.9645 18.2184 21.472 18.4224 20.9585 18.4224L20.9526 18.4263Z" fill="white"/>
</g>
<defs>
<clipPath id="clip0_2_475">
<rect width="30" height="30" fill="white"/>
</clipPath>
</defs>
</svg>
