<svg width="30" height="30" viewBox="0 0 30 30" fill="none" xmlns="http://www.w3.org/2000/svg">
<g clip-path="url(#clip0_2_471)">
<path d="M14.9999 0C12.0332 0 9.13313 0.879735 6.66639 2.52796C4.19965 4.17618 2.27707 6.51886 1.14175 9.25975C0.00643819 12.0006 -0.290612 15.0166 0.288166 17.9264C0.866945 20.8361 2.29556 23.5088 4.39334 25.6066C6.49113 27.7044 9.16387 29.133 12.0736 29.7118C14.9833 30.2906 17.9993 29.9935 20.7402 28.8582C23.4811 27.7229 25.8238 25.8003 27.472 23.3336C29.1202 20.8668 29.9999 17.9667 29.9999 15C29.9999 11.0218 28.4196 7.20644 25.6065 4.3934C22.7935 1.58035 18.9782 0 14.9999 0V0ZM19.5197 19.6243C19.4546 19.7362 19.3613 19.829 19.2491 19.8935C19.1368 19.9579 19.0096 19.9917 18.8802 19.9914C18.7491 19.9922 18.6202 19.9574 18.5072 19.8908C16.5611 18.75 14.3131 18.5704 12.7697 18.6178C11.7664 18.6436 10.7687 18.7759 9.79337 19.0125C9.60414 19.0648 9.40187 19.0399 9.23105 18.9431C9.06023 18.8463 8.93486 18.6856 8.88251 18.4964C8.83017 18.3072 8.85513 18.1049 8.95193 17.9341C9.04872 17.7632 9.2094 17.6379 9.39863 17.5855C10.4735 17.3197 11.574 17.1708 12.6809 17.1414C13.7387 17.1008 14.7978 17.1776 15.8388 17.3704C17.0374 17.5878 18.1902 18.0083 19.2473 18.6138C19.4174 18.7117 19.5417 18.8732 19.5928 19.0627C19.6438 19.2522 19.6175 19.4542 19.5197 19.6243ZM20.9013 16.7664C20.8433 16.8659 20.7664 16.9528 20.6747 17.0224C20.5831 17.092 20.4787 17.1429 20.3674 17.172C20.2561 17.2012 20.1401 17.2081 20.0262 17.1923C19.9122 17.1766 19.8025 17.1385 19.7032 17.0803C17.398 15.7342 14.7355 15.5171 12.9059 15.5724C11.7157 15.6024 10.5321 15.7585 9.37495 16.0382C9.15065 16.0997 8.9111 16.0695 8.709 15.9544C8.50691 15.8393 8.35882 15.6486 8.29731 15.4243C8.23581 15.2 8.26592 14.9605 8.38104 14.7584C8.49615 14.5563 8.68683 14.4082 8.91113 14.3467C10.1838 14.0311 11.4866 13.8531 12.7973 13.8158C14.0534 13.7679 15.311 13.8586 16.5473 14.0862C17.9679 14.3427 19.3338 14.8414 20.5855 15.5605C20.6867 15.619 20.7753 15.6971 20.8459 15.7903C20.9165 15.8834 20.9678 15.9898 20.9967 16.1031C21.0255 16.2164 21.0314 16.3343 21.014 16.45C20.9966 16.5656 20.9563 16.6765 20.8953 16.7763L20.9013 16.7664ZM22.6776 13.6322C22.5833 13.7952 22.4477 13.9304 22.2845 14.0243C22.1213 14.1182 21.9362 14.1675 21.748 14.1671C21.5577 14.1673 21.3708 14.1162 21.2072 14.0191C15.7263 10.8178 8.61902 12.7204 8.54797 12.7401C8.27185 12.8166 7.97668 12.7802 7.72739 12.639C7.4781 12.4977 7.29512 12.2633 7.2187 11.9872C7.14227 11.7111 7.17867 11.4159 7.31987 11.1666C7.46108 10.9173 7.69553 10.7343 7.97166 10.6579C9.53346 10.2728 11.1321 10.0564 12.7401 10.0125C14.2786 9.95446 15.8188 10.0663 17.3328 10.3461C19.0753 10.6612 20.7509 11.2726 22.2868 12.1539C22.4098 12.2251 22.5174 12.32 22.6034 12.4331C22.6895 12.5462 22.7522 12.6752 22.788 12.8127C22.8238 12.9502 22.832 13.0935 22.812 13.2341C22.792 13.3748 22.7443 13.5101 22.6717 13.6322H22.6776Z" fill="white"/>
</g>
<defs>
<clipPath id="clip0_2_471">
<rect width="30" height="30" fill="white"/>
</clipPath>
</defs>
</svg>
