<svg width="30" height="30" viewBox="0 0 30 30" fill="none" xmlns="http://www.w3.org/2000/svg">
<g clip-path="url(#clip0_2_467)">
<path d="M14.9999 0C12.0332 0 9.13313 0.879735 6.66639 2.52796C4.19965 4.17618 2.27707 6.51886 1.14175 9.25975C0.00643819 12.0006 -0.290612 15.0166 0.288166 17.9264C0.866945 20.8361 2.29556 23.5088 4.39334 25.6066C6.49113 27.7044 9.16387 29.133 12.0736 29.7118C14.9833 30.2906 17.9993 29.9935 20.7402 28.8582C23.4811 27.7229 25.8238 25.8003 27.472 23.3336C29.1202 20.8668 29.9999 17.9667 29.9999 15C29.9999 11.0218 28.4196 7.20644 25.6065 4.3934C22.7935 1.58035 18.9782 0 14.9999 0V0ZM21.7618 13.3283C20.4236 13.4763 19.2769 12.9474 18.1302 12.2724C18.1302 12.3829 18.1638 15.8092 18.1065 17.4434C18.0493 19.123 17.4493 20.6013 16.1328 21.7046C13.342 24.0474 9.38087 22.7822 8.43547 19.2C7.92231 17.248 8.36837 15.4895 9.89995 14.098C10.7624 13.3086 11.8263 12.9572 12.967 12.8112C13.2118 12.7796 13.4585 12.7658 13.723 12.7421V15.3947C13.3874 15.4776 13.048 15.5507 12.7144 15.6493C12.483 15.7162 12.2573 15.8013 12.0394 15.9039C11.7354 16.0407 11.467 16.2455 11.255 16.5026C11.0429 16.7598 10.8929 17.0623 10.8165 17.3867C10.7402 17.7112 10.7396 18.0488 10.8148 18.3735C10.8899 18.6983 11.0388 19.0013 11.2499 19.2592C11.5038 19.6103 11.8491 19.8849 12.2483 20.0534C12.6474 20.2218 13.0851 20.2775 13.5138 20.2145C14.3763 20.1099 14.917 19.5671 15.2368 18.7875C15.4579 18.1705 15.5538 17.5157 15.519 16.8612C15.5072 13.6401 15.5072 10.4211 15.5013 7.2C15.504 7.16687 15.5086 7.13393 15.5151 7.10132H18.0907C18.3789 9.25658 19.4723 10.6224 21.7618 10.8158V13.3283Z" fill="white"/>
</g>
<defs>
<clipPath id="clip0_2_467">
<rect width="30" height="30" fill="white"/>
</clipPath>
</defs>
</svg>
