<svg width="30" height="30" viewBox="0 0 30 30" fill="none" xmlns="http://www.w3.org/2000/svg">
<g clip-path="url(#clip0_2_449)">
<path d="M14.9999 0C12.0332 0 9.13313 0.879735 6.66639 2.52796C4.19965 4.17618 2.27707 6.51886 1.14175 9.25975C0.00643819 12.0006 -0.290612 15.0166 0.288166 17.9264C0.866945 20.8361 2.29556 23.5088 4.39334 25.6066C6.49113 27.7044 9.16387 29.133 12.0736 29.7118C14.9833 30.2906 17.9993 29.9935 20.7402 28.8582C23.4811 27.7229 25.8238 25.8003 27.472 23.3336C29.1202 20.8668 29.9999 17.9667 29.9999 15C29.9999 11.0218 28.4196 7.20644 25.6065 4.3934C22.7935 1.58035 18.9782 0 14.9999 0V0ZM22.721 11.0526C22.721 11.2224 22.7348 11.3921 22.7348 11.5678C22.7348 16.8316 18.7263 22.9046 11.394 22.9046C9.22447 22.9133 7.09903 22.2921 5.2756 21.1164C5.59179 21.156 5.91026 21.1744 6.22889 21.1717C8.0172 21.1719 9.75414 20.5737 11.1631 19.4724C10.3328 19.4479 9.53049 19.167 8.86615 18.6684C8.20182 18.1698 7.70804 17.4779 7.45258 16.6875C7.70143 16.7368 7.95485 16.7593 8.2085 16.7546C8.56076 16.7577 8.91187 16.7139 9.25258 16.6243C8.3516 16.4379 7.54236 15.9467 6.96109 15.2335C6.37982 14.5203 6.062 13.6286 6.06113 12.7086V12.6651C6.613 12.971 7.23039 13.1396 7.86113 13.1566C7.01608 12.5919 6.41859 11.7258 6.19078 10.7353C5.96297 9.74485 6.12204 8.70475 6.63547 7.82763C7.63398 9.06135 8.88158 10.0705 10.2967 10.7891C11.7119 11.5078 13.2627 11.9197 14.848 11.998C14.7835 11.6998 14.7524 11.3953 14.7552 11.0901C14.7545 10.2907 14.9944 9.50959 15.4437 8.84837C15.893 8.18714 16.5308 7.6764 17.2743 7.38259C18.0177 7.08878 18.8324 7.0255 19.6123 7.20096C20.3922 7.37643 21.1013 7.78253 21.6473 8.36645C22.5383 8.19123 23.3928 7.86481 24.1736 7.40132C23.879 8.32543 23.2553 9.10921 22.421 9.60395C23.2124 9.50559 23.9855 9.29354 24.7164 8.97434C24.1838 9.78319 23.5075 10.4876 22.721 11.0526Z" fill="white"/>
</g>
<defs>
<clipPath id="clip0_2_449">
<rect width="30" height="30" fill="white"/>
</clipPath>
</defs>
</svg>
