<svg width="25" height="24" viewBox="0 0 25 24" fill="none" xmlns="http://www.w3.org/2000/svg">
<path d="M22.5411 0.369628C22.0518 0.12894 21.498 0 20.9164 0H4.07952C2.10414 0 0.497986 1.4957 0.497986 3.33524V23.1404C0.497986 23.6132 0.91337 24 1.42106 24H18.258C18.7657 24 19.1811 23.6132 19.1811 23.1404V9.97135H23.5749C24.0826 9.97135 24.498 9.58453 24.498 9.11175V3.33524C24.498 2.03725 23.7041 0.911175 22.5411 0.369628ZM17.3349 22.2808H2.34414V3.33524C2.34414 2.44126 3.11952 1.7192 4.07952 1.7192H17.7872C17.5011 2.20057 17.3349 2.75072 17.3349 3.33524V7.46132V9.11175V22.2808ZM22.6518 8.25215H19.1811V7.46132V3.33524C19.1811 2.44126 19.9564 1.7192 20.9164 1.7192C21.8764 1.7192 22.6518 2.44126 22.6518 3.33524V8.25215Z" fill="#0A1E47"/>
<path d="M9.83952 9.97134C11.5657 9.97134 12.978 8.65615 12.978 7.0487C12.978 5.44125 11.5657 4.12607 9.83952 4.12607C8.11337 4.12607 6.70107 5.44125 6.70107 7.0487C6.70107 8.65615 8.11337 9.97134 9.83952 9.97134ZM9.83952 5.84527C10.5503 5.84527 11.1318 6.38673 11.1318 7.0487C11.1318 7.71068 10.5503 8.25214 9.83952 8.25214C9.12875 8.25214 8.54722 7.7106 8.54722 7.0487C8.54722 6.38681 9.12875 5.84527 9.83952 5.84527Z" fill="#0A1E47"/>
<path d="M13.8271 17.3297H5.85165C5.34193 17.3297 4.92857 17.7146 4.92857 18.1893C4.92857 18.664 5.34193 19.0489 5.85165 19.0489H13.8271C14.3369 19.0489 14.7502 18.664 14.7502 18.1893C14.7502 17.7146 14.3369 17.3297 13.8271 17.3297Z" fill="#0A1E47"/>
<path d="M13.8271 13.2033H5.85165C5.34193 13.2033 4.92857 13.5883 4.92857 14.0629C4.92857 14.5376 5.34193 14.9225 5.85165 14.9225H13.8271C14.3369 14.9225 14.7502 14.5376 14.7502 14.0629C14.7502 13.5883 14.3369 13.2033 13.8271 13.2033Z" fill="#0A1E47"/>
</svg>
