<svg width="30" height="30" viewBox="0 0 30 30" fill="none" xmlns="http://www.w3.org/2000/svg">
<g clip-path="url(#clip0_2_457)">
<path d="M12.9197 17.4198L17.0803 15.006L12.9197 12.5803V17.4198Z" fill="white"/>
<path d="M14.9999 0C12.0332 0 9.13312 0.879735 6.66638 2.52796C4.19965 4.17618 2.27706 6.51886 1.14175 9.25975C0.00643818 12.0006 -0.290611 15.0166 0.288166 17.9264C0.866944 20.8361 2.29555 23.5088 4.39334 25.6066C6.49112 27.7044 9.16386 29.133 12.0736 29.7118C14.9833 30.2906 17.9993 29.9935 20.7402 28.8582C23.4811 27.7229 25.8237 25.8003 27.472 23.3336C29.1202 20.8668 29.9999 17.9667 29.9999 15C29.9999 11.0218 28.4195 7.20644 25.6065 4.3934C22.7935 1.58035 18.9782 0 14.9999 0V0ZM22.8946 17.6546C22.8949 18.0469 22.8179 18.4354 22.6679 18.798C22.518 19.1605 22.298 19.4899 22.0207 19.7674C21.7434 20.0449 21.4141 20.2651 21.0517 20.4153C20.6893 20.5655 20.3008 20.6428 19.9085 20.6428H10.0914C9.69906 20.6428 9.31059 20.5655 8.94816 20.4153C8.58573 20.2651 8.25645 20.0449 7.97913 19.7674C7.70181 19.4899 7.48189 19.1605 7.33194 18.798C7.18199 18.4354 7.10494 18.0469 7.1052 17.6546V12.3454C7.10494 11.9531 7.18199 11.5646 7.33194 11.202C7.48189 10.8395 7.70181 10.5101 7.97913 10.2326C8.25645 9.95507 8.58573 9.73493 8.94816 9.58474C9.31059 9.43454 9.69906 9.35724 10.0914 9.35724H19.9085C20.3008 9.35724 20.6893 9.43454 21.0517 9.58474C21.4141 9.73493 21.7434 9.95507 22.0207 10.2326C22.298 10.5101 22.518 10.8395 22.6679 11.202C22.8179 11.5646 22.8949 11.9531 22.8946 12.3454V17.6546Z" fill="white"/>
</g>
<defs>
<clipPath id="clip0_2_457">
<rect width="30" height="30" fill="white"/>
</clipPath>
</defs>
</svg>
